<svg xmlns="http://www.w3.org/2000/svg" xmlns:xlink="http://www.w3.org/1999/xlink" width="850" height="410" viewBox="260 260 1400 600">
  <defs>
    <clipPath id="clip-path">
      <rect width="1374.099" height="629.329" fill="none"/>
    </clipPath>
    <clipPath id="clip-Web_1920_1">
      <rect width="1920" height="6402"/>
    </clipPath>
  </defs>
  <g id="Web_1920_1" data-name="Web 1920 – 1" clip-path="url(#clip-Web_1920_1)">
    <path id="Path_207" data-name="Path 207" d="M769.932,383.829Z" transform="translate(919.466 672.807)" fill="#2f2e41"/>
    <path id="Path_461" data-name="Path 461" d="M0,0,2.343,2.343,5.355,5.355" transform="translate(529.671 3734.5)" fill="none" stroke="#707070" stroke-width="1"/>
    <g id="Component_1_1" data-name="Component 1 – 1" transform="translate(534.671 3734.5)">
      <path id="Path_460" data-name="Path 460" d="M0,5,4.972,0" fill="none" stroke="#707070" stroke-width="1"/>
    </g>
    <ellipse id="Ellipse_95" data-name="Ellipse 95" cx="5.07" cy="5.07" rx="5.07" ry="5.07" transform="translate(1037.473 2588.544)" fill="#fff"/>
    <ellipse id="Ellipse_96" data-name="Ellipse 96" cx="5.07" cy="5.07" rx="5.07" ry="5.07" transform="translate(1018.23 2588.544)" fill="#fff"/>
    <g id="Repeat_Grid_1" data-name="Repeat Grid 1" transform="translate(271.627 238.516)" clip-path="url(#clip-path)">
      <g id="Group_100" data-name="Group 100" transform="translate(-271.627 -238.516)">
        <path id="Path_312" data-name="Path 312" d="M1239.645,835.588H312.4a23.9,23.9,0,0,1-23.874-23.874V239.954a17.51,17.51,0,0,1,17.49-17.491h939.712a17.813,17.813,0,0,1,17.793,17.793V811.713a23.9,23.9,0,0,1-23.874,23.874Z" transform="translate(148.95 31.757)" fill="#fff" stroke="#dfe5ed" stroke-width="1"/>
        <path id="Path_778" data-name="Path 778" d="M788.952,471.882a11,11,0,0,0-16.17,2.84,10.47,10.47,0,0,0-.679,1.3l-47.954,9.692-12.768-30a9.432,9.432,0,1,0-17.29,7.544l18.71,41.83.052.09a8.545,8.545,0,0,0,9.748,3.01l52.853-18.941a10.313,10.313,0,0,0,.885.619,11,11,0,0,0,15.744-4.656q.2-.424.365-.859a11.037,11.037,0,0,0-3.5-12.469Z" transform="translate(-421.242 229.123) rotate(-9)" fill="#f5d6c8"/>
        <path id="Path_314" data-name="Path 314" d="M1263.29,247.759h-975V235.6a23.981,23.981,0,0,1,23.961-23.946h927.076A23.981,23.981,0,0,1,1263.29,235.6Z" transform="translate(149.179 27.358)" fill="#133567" stroke="#133567" stroke-width="1"/>
        <ellipse id="Ellipse_35" data-name="Ellipse 35" cx="8.892" cy="8.892" rx="8.892" ry="8.892" transform="translate(460.819 250.174)" fill="#ec6a5f"/>
        <ellipse id="Ellipse_36" data-name="Ellipse 36" cx="8.892" cy="8.892" rx="8.892" ry="8.892" transform="translate(487.573 250.174)" fill="#f4be4f"/>
        <ellipse id="Ellipse_37" data-name="Ellipse 37" cx="8.892" cy="8.892" rx="8.892" ry="8.892" transform="translate(514.326 250.174)" fill="#62c454"/>
        <ellipse id="Ellipse_137" data-name="Ellipse 137" cx="117.5" cy="118" rx="117.5" ry="118" transform="translate(458.91 365.533)" fill="#6786ac" opacity="0.238"/>
        <g id="Rectangle_111" data-name="Rectangle 111" transform="translate(557.211 739.534)" fill="#2f2e41" stroke="#2f2e41" stroke-width="1">
          <rect width="56.504" height="34.71" stroke="none"/>
          <rect x="0.5" y="0.5" width="55.504" height="33.71" fill="none"/>
        </g>
        <path id="Path_155" data-name="Path 155" d="M80.937,477.576H94.851l6.619-53.666H80.935Z" transform="translate(260.469 376.846)" fill="#f6d6c7"/>
        <path id="Path_156" data-name="Path 156" d="M0,0H43.728V16.895H16.895A16.9,16.9,0,0,1,0,0Z" transform="translate(382.15 867.342) rotate(179.997)" fill="#0d264b"/>
        <path id="Path_157" data-name="Path 157" d="M34.937,477.576H48.851L55.47,423.91H34.935Z" transform="translate(254.264 376.846)" fill="#f5d6c8"/>
        <path id="Path_158" data-name="Path 158" d="M0,0H43.728V16.895H16.895A16.9,16.9,0,0,1,0,0Z" transform="translate(329.945 867.342) rotate(179.997)" fill="#0d264b"/>
        <path id="Path_160" data-name="Path 160" d="M231.575,675.776a5.126,5.126,0,0,1-5.072-4.5l-8.087-67.642c-.235-1.969-2.262-21.909-4.245-21.946s-3.315,19.841-3.623,21.8L200.36,668.253a5.083,5.083,0,0,1-5.045,4.313H178.8a5.107,5.107,0,0,1-5.107-5.146l7.881-143.6a5.077,5.077,0,0,1,4.373-5.016l61.277-8.9a5.108,5.108,0,0,1,5.841,5.09L252,669.974a5.106,5.106,0,0,1-4.864,5.065l-15.317.73Q231.7,675.776,231.575,675.776Z" transform="translate(110.247 151.618)" fill="#091d3b"/>
        <ellipse id="Ellipse_29" data-name="Ellipse 29" cx="27.874" cy="27.874" rx="27.874" ry="27.874" transform="translate(291.126 450.689)" fill="#f6d6c7"/>
        <path id="Path_161" data-name="Path 161" d="M200.777,546.31a51.165,51.165,0,0,1-17.28-3.077,5.068,5.068,0,0,1-3.312-4.545c-.529-11.731-3.621-72.115-12.625-108.948A37.654,37.654,0,0,1,181.9,390.5q.726-.522,1.481-1.025a36.664,36.664,0,0,1,35.63-2.793,37.7,37.7,0,0,1,21.975,29.458L255.671,525.15a5.082,5.082,0,0,1-1.057,3.86,5.014,5.014,0,0,1-3.465,1.9c-5.088.508-15.639,2.479-29.144,9.982A43.268,43.268,0,0,1,200.777,546.31Z" transform="translate(109.276 134.552)" fill="#133567"/>
        <path id="Path_165" data-name="Path 165" d="M188.788,375.516c5.2,5.539,14.857,2.566,15.535-5a9.142,9.142,0,0,0-.012-1.766c-.35-3.352-2.286-6.4-1.822-9.934a5.21,5.21,0,0,1,.953-2.439c4.144-5.549,13.871,2.482,17.782-2.541,2.4-3.08-.421-7.93,1.419-11.372,2.429-4.544,9.622-2.3,14.134-4.791,5.019-2.769,4.719-10.47,1.415-15.154-4.029-5.713-11.094-8.761-18.071-9.2s-13.906,1.447-20.419,3.985c-7.4,2.884-14.74,6.87-19.294,13.377-5.538,7.914-6.071,18.553-3.3,27.807C178.791,364.116,184.542,370.992,188.788,375.516Z" transform="translate(110.486 125.099)" fill="#2f2e41"/>
        <path id="Path_384" data-name="Path 384" d="M909.992,349.622c6.014,11.823,10.753,24.018,24.018,24.018a24.018,24.018,0,1,0,0-48.036C920.529,325.435,898.8,327.615,909.992,349.622Z" transform="translate(-121.054 87.92)" fill="#2f2e41"/>
        <path id="Path_391" data-name="Path 391" d="M553.971,579.232H455.6a9.942,9.942,0,0,1-9.84-8.629,9.006,9.006,0,0,1-.086-1.3V460.8a9.937,9.937,0,0,1,9.926-9.926h98.373A9.937,9.937,0,0,1,563.9,460.8V569.306A9.937,9.937,0,0,1,553.971,579.232ZM455.6,456.289a4.517,4.517,0,0,0-4.512,4.512V569.306a3.844,3.844,0,0,0,.034.555,4.525,4.525,0,0,0,4.477,3.957h98.373a4.517,4.517,0,0,0,4.512-4.512V460.8a4.517,4.517,0,0,0-4.512-4.512Z" transform="translate(85.996 -59.939)" fill="#a0bde0"/>
        <path id="Path_393" data-name="Path 393" d="M537.692,567.227a21.465,21.465,0,0,0-11.442-18.859c-.279-.153-.568-.289-.857-.424a21.312,21.312,0,0,0-7.95-2.021l-21.1-1.182a21.291,21.291,0,0,0-8.753,1.345,20.392,20.392,0,0,0-1.994.866,21.235,21.235,0,0,0-5.522,3.925,21.481,21.481,0,0,0-6.371,16.188l.379,8.942,2.653,6.885h58.985a16.206,16.206,0,0,0,1.9-2.869A14.364,14.364,0,0,0,537.692,567.227Z" transform="translate(83.26 -69.104)" fill="#3e577e"/>
        <path id="Path_394" data-name="Path 394" d="M540.367,555.718A12.761,12.761,0,0,0,536,550.538a13.039,13.039,0,0,0-4.521-1.967,13.233,13.233,0,0,0-1.967-.28,12.711,12.711,0,0,0-3.88.334,12.88,12.88,0,0,0-8.292,18.489l8.112,15.358.406.767H553.1Z" transform="translate(79.141 -69.451)" fill="#3e577e"/>
        <path id="Path_395" data-name="Path 395" d="M491.022,547.5a12.941,12.941,0,0,0-4.069-1.281,12.541,12.541,0,0,0-3.185-.045,12.865,12.865,0,0,0-11.153,10.188l-5.5,26.664h21.493l4.016-1.642,5-19.184A12.921,12.921,0,0,0,491.022,547.5Z" transform="translate(83.902 -69.239)" fill="#3e577e"/>
        <path id="Path_399" data-name="Path 399" d="M705.445,578.449a6.862,6.862,0,1,0,0,13.725h0a6.862,6.862,0,1,0,0-13.725Z" transform="translate(-166.914 -18.081)" fill="#a0bde0"/>
        <path id="Path_401" data-name="Path 401" d="M417.937,373.75H363.722c-3.327,0-6.024-3.072-6.024-6.862s2.7-6.862,6.024-6.862h54.215c3.327,0,6.024,3.072,6.024,6.862S421.264,373.75,417.937,373.75Z" transform="translate(173.971 172.943)" fill="#a0bde0"/>
        <path id="Path_407" data-name="Path 407" d="M417.937,373.75H363.722c-3.327,0-6.024-3.072-6.024-6.862s2.7-6.862,6.024-6.862h54.215c3.327,0,6.024,3.072,6.024,6.862S421.264,373.75,417.937,373.75Z" transform="translate(252.352 172.943)" fill="#a0bde0"/>
        <g id="Group_95" data-name="Group 95" transform="translate(80.234 -3752.664)">
          <path id="Path_424" data-name="Path 424" d="M611.532,534.144l-10,6.615-30.273-35.432,14.762-9.763Z" transform="translate(944.998 4056.528)" fill="#a66d4f"/>
          <path id="Path_425" data-name="Path 425" d="M895.976,708.794l-32.251,21.329-.27-.408a15.051,15.051,0,0,1,4.251-20.855h0l19.7-13.027Z" transform="translate(669.517 3889.886)" fill="#091d3b"/>
          <path id="Path_426" data-name="Path 426" d="M480.033,552.081H468.041l-5.7-46.253h17.7Z" transform="translate(947.382 4056.304)" fill="#a66d4f"/>
          <path id="Path_427" data-name="Path 427" d="M757.852,730.542H719.187v-.489A15.05,15.05,0,0,1,734.236,715h23.617Z" transform="translate(672.621 3889.466)" fill="#091d3b"/>
          <path id="Path_428" data-name="Path 428" d="M666.958,393.093l-45.276-32.342a8.8,8.8,0,1,0-10.571,7.579c5.659,4.752,47,45.862,52.914,43.693,6.007-2.2,32.271-6.185,32.271-6.185l.731-24.937Z" transform="translate(675.14 3897.437)" fill="#a66d4f"/>
          <path id="Path_429" data-name="Path 429" d="M704.733,454.057l.428,56.9s9.8,84.314,13.412,98.557,18.282,80.151,18.282,80.151l23.845-3.847-15.356-86.169,4.641-71.419,26.765,71.576,67.964,71.043,17.225-13.9-59.156-86.935L784.714,498.8s2.247-36.836-18-51.021Z" transform="translate(672.937 3895.317)" fill="#091d3b"/>
          <circle id="Ellipse_62" data-name="Ellipse 62" cx="26.136" cy="26.136" r="26.136" transform="translate(1365.231 4171.972)" fill="#a66d4f"/>
          <rect id="Rectangle_95" data-name="Rectangle 95" width="23.76" height="30.888" transform="translate(1388.453 4380.242) rotate(-65.867)" fill="#2f2e41"/>
          <path id="Path_430" data-name="Path 430" d="M593.233,362.657" transform="translate(675.378 3897.18)" fill="#6c63ff"/>
          <path id="Path_431" data-name="Path 431" d="M760.107,350.6c-3.08-6.13-4.577-13.7-11.143-15.69-4.434-1.342-22.368.669-26.409,2.934-6.722,3.768-.631,10.829-4.6,17.436l-12.933,21.549c-2.964,4.938-5.958,9.946-7.561,15.478s-1.679,11.74,1.051,16.811c2.443,4.539,6.869,7.758,9.326,12.289,2.555,4.713-2.032,25.755-4.41,30.559l1.142.527a257.326,257.326,0,0,0,47.387-1.595c3.9-.494,7.95-1.139,11.163-3.4,4.734-3.334,6.605-9.385,7.775-15.056A126.838,126.838,0,0,0,760.107,350.6Z" transform="translate(673.121 3897.797)" fill="#dfe9f5"/>
          <path id="Path_432" data-name="Path 432" d="M706.4,410.2c7.081-6.959,14.2-13.959,20.026-22s10.362-17.235,11.627-27.082a20.057,20.057,0,0,0-.627-9.41,9.655,9.655,0,0,0-6.591-6.309c-4.961-1.089-9.471,2.87-13.011,6.512l-31.314,32.215,19.947,26.256Z" transform="translate(673.336 3897.562)" fill="#dfe9f5"/>
          <path id="Path_433" data-name="Path 433" d="M784.36,416.393c-2.2-6.007-6.185-32.271-6.185-32.271l-24.937-.731,12.192,30.07-33.269,46.574s.062.1.174.285a8.8,8.8,0,1,0,7.38,9.35.607.607,0,0,0,.763-.131C744.179,464.893,786.561,422.4,784.36,416.393Z" transform="translate(672.556 3896.726)" fill="#a66d4f"/>
          <path id="Path_434" data-name="Path 434" d="M787.334,398.9c-2.289-9.66-4.595-19.373-8.454-28.521s-9.383-17.787-17.153-23.967a20.059,20.059,0,0,0-8.375-4.334,9.655,9.655,0,0,0-8.81,2.374c-3.5,3.681-2.447,9.589-1.163,14.5l11.354,43.468,32.789-3.476Z" transform="translate(672.118 3897.635)" fill="#dfe9f5"/>
          <path id="Path_436" data-name="Path 436" d="M625.424,343.361l-16.813,25.233a4.4,4.4,0,0,1-7.718-.738,4.04,4.04,0,0,1-.263-.838,4.414,4.414,0,0,1,.655-3.305L618.1,338.48a4.4,4.4,0,0,1,7.326,4.881Z" transform="translate(675.218 3897.752)" fill="#a3c2ed"/>
          <path id="Path_437" data-name="Path 437" d="M609.878,367.122l-3.4,5.077-6.022,5.308a2.4,2.4,0,0,1-3.856-2.569l2.636-7.715,3.319-4.982Z" transform="translate(675.307 3897.189)" fill="#3f3d56"/>
          <path id="Path_438" data-name="Path 438" d="M626.487,329.972l-8.426,7.427a2.4,2.4,0,0,0,.256,3.8l1.594,1.062-4.61,6.919a.978.978,0,1,0,1.628,1.085l4.61-6.919,1.594,1.062a2.394,2.394,0,0,0,3.6-1.225l3.609-10.636a2.4,2.4,0,0,0-3.858-2.57Z" transform="translate(674.899 3897.909)" fill="#3f3d56"/>
          <path id="Path_440" data-name="Path 440" d="M516.34,187.331H489.931a1.956,1.956,0,0,1,0-3.912H516.34a1.956,1.956,0,1,1,0,3.912Z" transform="translate(677.683 3901.104)" fill="#fff"/>
          <circle id="Ellipse_63" data-name="Ellipse 63" cx="1.956" cy="1.956" r="1.956" transform="translate(1205.271 4084.523)" fill="#fff"/>
        </g>
        <path id="Path_451" data-name="Path 451" d="M298.342,403.873a8.223,8.223,0,0,0-3.593-4.391,7.137,7.137,0,0,0-1.016-.517,8.215,8.215,0,0,0-10.869,10.406l13.192,29.986H313.43Z" transform="translate(547.451 74.877)" fill="#3f3d56"/>
        <path id="Path_452" data-name="Path 452" d="M234.111,406.155a8.216,8.216,0,0,0-11.332,4.691l-12.285,28.9a7.147,7.147,0,0,0,1.932.263h15.415l10.415-23.662A8.2,8.2,0,0,0,234.111,406.155Z" transform="translate(554.115 74.228)" fill="#3f3d56"/>
        <path id="Path_718" data-name="Path 718" d="M22.284,0A22.284,22.284,0,1,1,0,22.284,22.284,22.284,0,0,1,22.284,0Z" transform="translate(788.943 420.778)" fill="#a07761"/>
        <path id="Path_453" data-name="Path 453" d="M289.72,399.572c-.127-.118-.254-.245-.39-.354a14.474,14.474,0,0,0-11.568-3.6l-41.064,5.2a14.573,14.573,0,0,0-12.72,15.823c.563,6.333,1.47,14.326,2.922,22.455h64.87l2.386-27.726a14.548,14.548,0,0,0-4.437-11.795Z" transform="translate(552.87 75.14)" fill="#3f3d56"/>
        <path id="Path_455" data-name="Path 455" d="M435.146,373.75h-69.7c-4.277,0-7.745-3.072-7.745-6.862s3.467-6.862,7.745-6.862h69.7c4.277,0,7.745,3.072,7.745,6.862S439.423,373.75,435.146,373.75Z" transform="translate(191.662 200.343)" fill="#a0bde0"/>
        <ellipse id="Ellipse_81" data-name="Ellipse 81" cx="24.181" cy="24.181" rx="24.181" ry="24.181" transform="translate(1008.395 420.834)" fill="#2f2e41"/>
        <ellipse id="Ellipse_61" data-name="Ellipse 61" cx="22.284" cy="22.284" rx="22.284" ry="22.284" transform="translate(1010.292 425.227)" fill="#f0c7b3"/>
        <path id="Path_393-2" data-name="Path 393" d="M538.042,567.351a21.583,21.583,0,0,0-11.5-18.962c-.281-.154-.571-.29-.862-.426a21.428,21.428,0,0,0-7.993-2.032l-21.212-1.189a21.41,21.41,0,0,0-8.8,1.352,20.528,20.528,0,0,0-2.005.871,21.356,21.356,0,0,0-5.553,3.947,21.6,21.6,0,0,0-6.405,16.277l.381,8.991,2.667,6.923h59.309a16.306,16.306,0,0,0,1.906-2.885A14.442,14.442,0,0,0,538.042,567.351Z" transform="translate(524.87 -69.344)" fill="#a0bde0"/>
        <path id="Path_394-2" data-name="Path 394" d="M540.5,555.759a12.832,12.832,0,0,0-4.391-5.208,13.1,13.1,0,0,0-4.546-1.978,13.286,13.286,0,0,0-1.978-.281,12.782,12.782,0,0,0-3.9.336,12.95,12.95,0,0,0-8.338,18.59L525.5,582.66l.408.771H553.3Z" transform="translate(520.959 -69.674)" fill="#a0bde0"/>
        <path id="Path_395-2" data-name="Path 395" d="M491.153,547.51a13.007,13.007,0,0,0-4.091-1.288,12.6,12.6,0,0,0-3.2-.046,12.936,12.936,0,0,0-11.214,10.243l-5.525,26.81h21.611l4.038-1.651,5.026-19.289A12.992,12.992,0,0,0,491.153,547.51Z" transform="translate(525.479 -69.473)" fill="#a0bde0"/>
        <path id="Path_485" data-name="Path 485" d="M331.381,378.361c.617-2.154.014-4.066,0-5.8.095-3.439-1.663-6.551-2.974-9.73a15.407,15.407,0,0,0-8.054-7.8,14.668,14.668,0,0,0-11.018.01,22.164,22.164,0,0,0-10.465-3.818,11.694,11.694,0,0,0-9.977,4.243,16.318,16.318,0,0,1-1.743,2.269c-1.849,1.715-4.658,1.468-7.115,1.117l3.307,2.839-4,1.048,4.67,2.838c-4.52,2.718-6.574,8.651-6.031,14.04.513,5.1,2.971,9.766,5.91,13.913,1.172-2.478.92-5.444.9-8.236a18.68,18.68,0,0,1,.165-2.708c9.93,2.385,20.306,3.916,30.828.128l2.112-5.178c.3.031.593.059.889.091L320,382.717c2.774,1.136,5.553,2.129,8.333,1.086.135.787.217,1.589.279,2.361.239-.923.446-1.853.632-2.786a8.223,8.223,0,0,0,1.053-.674C330.369,381.154,331.63,379.891,331.381,378.361Z" transform="translate(726.433 60.601)" fill="#2f2e41"/>
        <ellipse id="Ellipse_189" data-name="Ellipse 189" cx="24.814" cy="24.814" rx="24.814" ry="24.814" transform="translate(558.952 701.097)" fill="#2f2e41"/>
        <path id="Path_553" data-name="Path 553" d="M21.546,0A21.546,21.546,0,1,1,0,21.546,21.546,21.546,0,0,1,21.546,0Z" transform="translate(561.22 705.134)" fill="#e7c69b"/>
        <path id="Path_543" data-name="Path 543" d="M181.965,132.557s0-8.9-8.266-6.994-10.809,5.087-10.809,5.087-3.179,5.087-8.266,5.723-9.538,15.26-8.9,18.439,3.815,11.445-.636,15.26-10.809,9.538-8.9,15.26,7.63,20.347,7.63,20.347-15.961,2.333-14.657,12.294a2.23,2.23,0,0,0,.3,1.532c.476.982,2.59,1.089,2.59,1.089s5.425,2.705,6.342,1.435,1.954-6.422,1.954-6.422a8.03,8.03,0,0,1,6.655-3.569c10.173,0,8.9-18.457,8.9-18.457s.636-11.428,2.543-14.607-.636-20.983,8.9-30.52,14.624-15.9,14.624-15.9Z" transform="translate(410.484 567.659)" fill="#2f2e41"/>
        <path id="Path_544" data-name="Path 544" d="M189.882,131.929s12.081,2.543,16.532,14.624,2.2,14.329,2.2,14.329.984,7.275,6.385,9.826.95,13.36.95,13.36,1.272,10.809,18.439,14.624-21.529,33.071-21.529,33.071,2.782-13.808-15.021-14.444,3.486-33.252,3.486-33.252l1.908-20.983s-3.815-24.162-15.26-27.341,1.908-3.815,1.908-3.815Z" transform="translate(400.023 566.38)" fill="#2f2e41"/>
        <g id="Group_79" data-name="Group 79" transform="translate(526.017 669.463)">
          <path id="Path_391-2" data-name="Path 391" d="M554.243,579.555h-98.62a9.967,9.967,0,0,1-9.865-8.651,9.035,9.035,0,0,1-.086-1.3V460.826a9.962,9.962,0,0,1,9.951-9.951h98.62a9.962,9.962,0,0,1,9.951,9.951V569.6A9.962,9.962,0,0,1,554.243,579.555ZM455.623,456.3a4.528,4.528,0,0,0-4.523,4.523V569.6a3.841,3.841,0,0,0,.034.556,4.537,4.537,0,0,0,4.488,3.967h98.62a4.528,4.528,0,0,0,4.523-4.523V460.826a4.528,4.528,0,0,0-4.523-4.523Z" transform="translate(-445.672 -450.875)" fill="#e6e6e6"/>
          <path id="Path_393-3" data-name="Path 393" d="M537.853,567.284a21.52,21.52,0,0,0-11.471-18.906c-.28-.154-.57-.289-.859-.425a21.362,21.362,0,0,0-7.97-2.026l-21.15-1.185a21.344,21.344,0,0,0-8.775,1.348,20.443,20.443,0,0,0-2,.868,21.3,21.3,0,0,0-5.536,3.935,21.536,21.536,0,0,0-6.387,16.229l.38,8.965,2.659,6.9H535.88a16.232,16.232,0,0,0,1.9-2.877A14.4,14.4,0,0,0,537.853,567.284Z" transform="translate(-448.345 -459.826)" fill="#3f3d56"/>
          <path id="Path_394-3" data-name="Path 394" d="M540.428,555.737a12.8,12.8,0,0,0-4.378-5.193,13.073,13.073,0,0,0-4.532-1.972,13.24,13.24,0,0,0-1.972-.28,12.742,12.742,0,0,0-3.89.335,12.912,12.912,0,0,0-8.313,18.535l8.133,15.4.407.769h27.31Z" transform="translate(-452.368 -460.165)" fill="#3f3d56"/>
          <path id="Path_395-3" data-name="Path 395" d="M491.082,547.506A12.963,12.963,0,0,0,487,546.221a12.562,12.562,0,0,0-3.193-.045,12.9,12.9,0,0,0-11.181,10.213l-5.509,26.731h21.547l4.026-1.646,5.011-19.232A12.953,12.953,0,0,0,491.082,547.506Z" transform="translate(-447.718 -459.958)" fill="#3f3d56"/>
        </g>
        <path id="Path_555" data-name="Path 555" d="M417.937,373.75H363.722c-3.327,0-6.024-3.072-6.024-6.862s2.7-6.862,6.024-6.862h54.215c3.327,0,6.024,3.072,6.024,6.862S421.264,373.75,417.937,373.75Z" transform="translate(836.177 172.943)" fill="#a3c2ed"/>
        <path id="Path_559" data-name="Path 559" d="M417.937,373.75H363.722c-3.327,0-6.024-3.072-6.024-6.862s2.7-6.862,6.024-6.862h54.215c3.327,0,6.024,3.072,6.024,6.862S421.264,373.75,417.937,373.75Z" transform="translate(914.559 172.943)" fill="#a3c2ed"/>
        <path id="Path_393-4" data-name="Path 393" d="M537.692,567.227a21.465,21.465,0,0,0-11.442-18.859c-.279-.153-.568-.289-.857-.424a21.312,21.312,0,0,0-7.95-2.021l-21.1-1.182a21.291,21.291,0,0,0-8.753,1.345,20.392,20.392,0,0,0-1.994.866,21.235,21.235,0,0,0-5.522,3.925,21.481,21.481,0,0,0-6.371,16.188l.379,8.942,2.653,6.885h58.985a16.206,16.206,0,0,0,1.9-2.869A14.364,14.364,0,0,0,537.692,567.227Z" transform="translate(745.467 -69.104)" fill="#123567"/>
        <path id="Path_394-4" data-name="Path 394" d="M540.367,555.718A12.761,12.761,0,0,0,536,550.538a13.039,13.039,0,0,0-4.521-1.967,13.233,13.233,0,0,0-1.967-.28,12.711,12.711,0,0,0-3.88.334,12.88,12.88,0,0,0-8.292,18.489l8.112,15.358.406.767H553.1Z" transform="translate(741.348 -69.451)" fill="#123567"/>
        <path id="Path_395-4" data-name="Path 395" d="M491.022,547.5a12.941,12.941,0,0,0-4.069-1.281,12.541,12.541,0,0,0-3.185-.045,12.865,12.865,0,0,0-11.153,10.188l-5.5,26.664h21.493l4.016-1.642,5-19.184A12.921,12.921,0,0,0,491.022,547.5Z" transform="translate(746.108 -69.239)" fill="#123567"/>
        <path id="Path_618" data-name="Path 618" d="M21.215,0A21.215,21.215,0,1,1,0,21.215,21.215,21.215,0,0,1,21.215,0Z" transform="translate(1230.463 429.113)" fill="#a66d4f"/>
        <path id="Path_570" data-name="Path 570" d="M333.033,46.861a40.2,40.2,0,0,0-5.45-8.262c-2.216-2.4-8.2-2.708-11.929-3.126-2.9-.327-4.693.428-9.91,2.3-5.5,2.092-11.258,17.858-11.258,17.858l-1.842-10.335s-1.3-14.231,11.9-19.015a16.777,16.777,0,0,1-4.929-13.418c.4-3.73,2.658-5.707,9.15-8.344,6.932-2.815,9.87-2.151,13.71-1.672,6.51.808,7.382,2.4,7.382,2.4a13.228,13.228,0,0,1,3.824,3.54,8.134,8.134,0,0,1,2.084,4.5c.183,4.17,2.231,9.051-5.908,13.872,0,0,5.785,2.06,8.153,7.591,2.04,4.761,5.742,15.827-2.245,23.14,0,0-.579-6.6-2.734-11.024Z" transform="translate(936.141 398.723)" fill="#2f2e41"/>
        <path id="Path_388" data-name="Path 388" d="M911.064,341.838A28.655,28.655,0,0,0,927.44,346.9a17.56,17.56,0,0,1-6.96,2.863,57.781,57.781,0,0,0,23.6.133,15.276,15.276,0,0,0,4.941-1.7,6.252,6.252,0,0,0,3.05-4.079c.518-2.958-1.787-5.646-4.183-7.457a30.852,30.852,0,0,0-25.926-5.181c-2.9.749-5.8,2.013-7.679,4.339s-2.438,5.911-.646,8.306Z" transform="translate(-121.647 87.215)" fill="#2f2e41"/>
        <g id="Rectangle_112" data-name="Rectangle 112" transform="translate(557.21 739.534)" fill="#2f2e41" stroke="#2f2e41" stroke-width="1">
          <rect width="56.504" height="34.71" stroke="none"/>
          <rect x="0.5" y="0.5" width="55.504" height="33.71" fill="none"/>
        </g>
        <ellipse id="Ellipse_189-2" data-name="Ellipse 189" cx="24.814" cy="24.814" rx="24.814" ry="24.814" transform="translate(558.952 701.097)" fill="#2f2e41"/>
        <path id="Path_661" data-name="Path 661" d="M21.546,0A21.546,21.546,0,1,1,0,21.546,21.546,21.546,0,0,1,21.546,0Z" transform="translate(561.22 705.134)" fill="#ac7b52"/>
        <path id="Path_662" data-name="Path 662" d="M181.965,132.557s0-8.9-8.266-6.994-10.809,5.087-10.809,5.087-3.179,5.087-8.266,5.723-9.538,15.26-8.9,18.439,3.815,11.445-.636,15.26-10.809,9.538-8.9,15.26,7.63,20.347,7.63,20.347-15.961,2.333-14.657,12.294a2.23,2.23,0,0,0,.3,1.532c.476.982,2.59,1.089,2.59,1.089s5.425,2.705,6.342,1.435,1.954-6.422,1.954-6.422a8.03,8.03,0,0,1,6.655-3.569c10.173,0,8.9-18.457,8.9-18.457s.636-11.428,2.543-14.607-.636-20.983,8.9-30.52,14.624-15.9,14.624-15.9Z" transform="translate(410.484 567.659)" fill="#2f2e41"/>
        <path id="Path_663" data-name="Path 663" d="M189.882,131.929s12.081,2.543,16.532,14.624,2.2,14.329,2.2,14.329.984,7.275,6.385,9.826.95,13.36.95,13.36,1.272,10.809,18.439,14.624-21.529,33.071-21.529,33.071,2.782-13.808-15.021-14.444,3.486-33.252,3.486-33.252l1.908-20.983s-3.815-24.162-15.26-27.341,1.908-3.815,1.908-3.815Z" transform="translate(400.023 566.38)" fill="#2f2e41"/>
        <path id="Path_393-5" data-name="Path 393" d="M537.853,567.284a21.52,21.52,0,0,0-11.471-18.906c-.28-.154-.57-.289-.859-.425a21.362,21.362,0,0,0-7.97-2.026l-21.15-1.185a21.344,21.344,0,0,0-8.775,1.348,20.443,20.443,0,0,0-2,.868,21.3,21.3,0,0,0-5.536,3.935,21.536,21.536,0,0,0-6.387,16.229l.38,8.965,2.659,6.9H535.88a16.232,16.232,0,0,0,1.9-2.877A14.4,14.4,0,0,0,537.853,567.284Z" transform="translate(77.672 209.637)" fill="#3f3d56"/>
        <path id="Path_394-5" data-name="Path 394" d="M540.428,555.737a12.8,12.8,0,0,0-4.378-5.193,13.073,13.073,0,0,0-4.532-1.972,13.24,13.24,0,0,0-1.972-.28,12.742,12.742,0,0,0-3.89.335,12.912,12.912,0,0,0-8.313,18.535l8.133,15.4.407.769h27.31Z" transform="translate(73.649 209.297)" fill="#3f3d56"/>
        <path id="Path_395-5" data-name="Path 395" d="M491.082,547.506A12.963,12.963,0,0,0,487,546.221a12.562,12.562,0,0,0-3.193-.045,12.9,12.9,0,0,0-11.181,10.213l-5.509,26.731h21.547l4.026-1.646,5.011-19.232A12.953,12.953,0,0,0,491.082,547.506Z" transform="translate(78.299 209.504)" fill="#3f3d56"/>
        <path id="Path_393-6" data-name="Path 393" d="M538.042,567.351a21.583,21.583,0,0,0-11.5-18.962c-.281-.154-.572-.29-.862-.426a21.424,21.424,0,0,0-7.993-2.032l-21.212-1.189a21.408,21.408,0,0,0-8.8,1.352,20.486,20.486,0,0,0-2.005.871,21.355,21.355,0,0,0-5.553,3.947,21.6,21.6,0,0,0-6.405,16.277l.382,8.991,2.667,6.923h59.308a16.291,16.291,0,0,0,1.906-2.885A14.442,14.442,0,0,0,538.042,567.351Z" transform="translate(298.483 209.227)" fill="#133567"/>
        <path id="Path_394-6" data-name="Path 394" d="M540.5,555.759a12.83,12.83,0,0,0-4.391-5.208,13.106,13.106,0,0,0-4.546-1.978,13.29,13.29,0,0,0-1.977-.281,12.78,12.78,0,0,0-3.9.336,12.95,12.95,0,0,0-8.338,18.59L525.5,582.66l.408.771H553.3Z" transform="translate(294.572 208.898)" fill="#133567"/>
        <path id="Path_395-6" data-name="Path 395" d="M491.153,547.51a13,13,0,0,0-4.092-1.288,12.6,12.6,0,0,0-3.2-.046,12.936,12.936,0,0,0-11.214,10.243l-5.525,26.81h21.611l4.038-1.651,5.026-19.289A12.992,12.992,0,0,0,491.153,547.51Z" transform="translate(299.092 209.099)" fill="#133567"/>
        <g id="Group_90" data-name="Group 90" transform="translate(966.623 669.419)">
          <path id="Path_391-3" data-name="Path 391" d="M554.243,579.555h-98.62a9.967,9.967,0,0,1-9.865-8.651,9.035,9.035,0,0,1-.086-1.3V460.826a9.962,9.962,0,0,1,9.951-9.951h98.62a9.962,9.962,0,0,1,9.951,9.951V569.6A9.962,9.962,0,0,1,554.243,579.555ZM455.623,456.3a4.528,4.528,0,0,0-4.523,4.523V569.6a3.841,3.841,0,0,0,.034.556,4.537,4.537,0,0,0,4.488,3.967h98.62a4.528,4.528,0,0,0,4.523-4.523V460.826a4.528,4.528,0,0,0-4.523-4.523Z" transform="translate(-445.672 -450.875)" fill="#e6e6e6"/>
          <path id="Path_393-7" data-name="Path 393" d="M537.853,567.284a21.52,21.52,0,0,0-11.471-18.906c-.28-.154-.57-.289-.859-.425a21.362,21.362,0,0,0-7.97-2.026l-21.15-1.185a21.344,21.344,0,0,0-8.775,1.348,20.443,20.443,0,0,0-2,.868,21.3,21.3,0,0,0-5.536,3.935,21.536,21.536,0,0,0-6.387,16.229l.38,8.965,2.659,6.9H535.88a16.232,16.232,0,0,0,1.9-2.877A14.4,14.4,0,0,0,537.853,567.284Z" transform="translate(-448.345 -459.826)" fill="#3f3d56"/>
          <path id="Path_394-7" data-name="Path 394" d="M540.428,555.737a12.8,12.8,0,0,0-4.378-5.193,13.073,13.073,0,0,0-4.532-1.972,13.24,13.24,0,0,0-1.972-.28,12.742,12.742,0,0,0-3.89.335,12.912,12.912,0,0,0-8.313,18.535l8.133,15.4.407.769h27.31Z" transform="translate(-452.368 -460.165)" fill="#3f3d56"/>
          <path id="Path_395-7" data-name="Path 395" d="M491.082,547.506A12.963,12.963,0,0,0,487,546.221a12.562,12.562,0,0,0-3.193-.045,12.9,12.9,0,0,0-11.181,10.213l-5.509,26.731h21.547l4.026-1.646,5.011-19.232A12.953,12.953,0,0,0,491.082,547.506Z" transform="translate(-447.718 -459.958)" fill="#3f3d56"/>
        </g>
        <g id="Group_91" data-name="Group 91" transform="translate(1187.359 668.759)">
          <g id="Group_67" data-name="Group 67" transform="translate(0 0)">
            <ellipse id="Ellipse_61-2" data-name="Ellipse 61" cx="22.284" cy="22.284" rx="22.284" ry="22.284" transform="translate(37.152 34.996)" fill="#daab87"/>
            <path id="Path_391-4" data-name="Path 391" d="M554.564,579.935H455.652a10,10,0,0,1-9.894-8.676,9.051,9.051,0,0,1-.086-1.3v-109.1a9.992,9.992,0,0,1,9.98-9.98h98.912a9.992,9.992,0,0,1,9.98,9.98v109.1A9.992,9.992,0,0,1,554.564,579.935ZM455.652,456.319a4.542,4.542,0,0,0-4.536,4.537v109.1a3.823,3.823,0,0,0,.035.558,4.55,4.55,0,0,0,4.5,3.979h98.912a4.542,4.542,0,0,0,4.536-4.536v-109.1a4.542,4.542,0,0,0-4.536-4.537Z" transform="translate(-445.672 -450.875)" fill="#e6e6e6"/>
            <path id="Path_393-8" data-name="Path 393" d="M538.042,567.351a21.583,21.583,0,0,0-11.5-18.962c-.281-.154-.572-.29-.862-.426a21.424,21.424,0,0,0-7.993-2.032l-21.212-1.189a21.408,21.408,0,0,0-8.8,1.352,20.486,20.486,0,0,0-2.005.871,21.355,21.355,0,0,0-5.553,3.947,21.6,21.6,0,0,0-6.405,16.277l.382,8.991,2.667,6.923h59.308a16.291,16.291,0,0,0,1.906-2.885A14.442,14.442,0,0,0,538.042,567.351Z" transform="translate(-448.27 -459.575)" fill="#3f3d56"/>
            <path id="Path_394-8" data-name="Path 394" d="M540.5,555.759a12.83,12.83,0,0,0-4.391-5.208,13.106,13.106,0,0,0-4.546-1.978,13.29,13.29,0,0,0-1.977-.281,12.78,12.78,0,0,0-3.9.336,12.95,12.95,0,0,0-8.338,18.59L525.5,582.66l.408.771H553.3Z" transform="translate(-452.18 -459.905)" fill="#3f3d56"/>
            <path id="Path_395-8" data-name="Path 395" d="M491.153,547.51a13,13,0,0,0-4.092-1.288,12.6,12.6,0,0,0-3.2-.046,12.936,12.936,0,0,0-11.214,10.243l-5.525,26.81h21.611l4.038-1.651,5.026-19.289A12.992,12.992,0,0,0,491.153,547.51Z" transform="translate(-447.661 -459.704)" fill="#3f3d56"/>
          </g>
        </g>
        <ellipse id="Ellipse_61-3" data-name="Ellipse 61" cx="22.284" cy="22.284" rx="22.284" ry="22.284" transform="translate(1224.511 703.754)" fill="#ce975f"/>
        <path id="Path_393-9" data-name="Path 393" d="M538.042,567.351a21.583,21.583,0,0,0-11.5-18.962c-.281-.154-.572-.29-.862-.426a21.424,21.424,0,0,0-7.993-2.032l-21.212-1.189a21.408,21.408,0,0,0-8.8,1.352,20.486,20.486,0,0,0-2.005.871,21.355,21.355,0,0,0-5.553,3.947,21.6,21.6,0,0,0-6.405,16.277l.382,8.991,2.667,6.923h59.308a16.291,16.291,0,0,0,1.906-2.885A14.442,14.442,0,0,0,538.042,567.351Z" transform="translate(739.089 209.183)" fill="#3e577e"/>
        <path id="Path_394-9" data-name="Path 394" d="M540.5,555.759a12.83,12.83,0,0,0-4.391-5.208,13.106,13.106,0,0,0-4.546-1.978,13.29,13.29,0,0,0-1.977-.281,12.78,12.78,0,0,0-3.9.336,12.95,12.95,0,0,0-8.338,18.59L525.5,582.66l.408.771H553.3Z" transform="translate(735.179 208.854)" fill="#3e577e"/>
        <path id="Path_395-9" data-name="Path 395" d="M491.153,547.51a13,13,0,0,0-4.092-1.288,12.6,12.6,0,0,0-3.2-.046,12.936,12.936,0,0,0-11.214,10.243l-5.525,26.81h21.611l4.038-1.651,5.026-19.289A12.992,12.992,0,0,0,491.153,547.51Z" transform="translate(739.698 209.055)" fill="#3e577e"/>
        <ellipse id="Ellipse_188" data-name="Ellipse 188" cx="9.735" cy="9.735" rx="9.735" ry="9.735" transform="translate(1033.047 740.416)" fill="#2f2e41"/>
        <path id="Path_969" data-name="Path 969" d="M420.408,379.664a9.736,9.736,0,0,1,8.57,14.356,9.733,9.733,0,1,0-16.17-10.695,9.712,9.712,0,0,1,7.6-3.661Z" transform="translate(625.086 361.021)" fill="#2f2e41"/>
        <ellipse id="Ellipse_189-3" data-name="Ellipse 189" cx="28.598" cy="28.598" rx="28.598" ry="28.598" transform="translate(995.992 692.935)" fill="#2f2e41"/>
        <path id="Path_970" data-name="Path 970" d="M391.286,357.6a28.593,28.593,0,0,1,39.633-3c-.233-.223-.466-.447-.708-.662a28.6,28.6,0,0,0-38.164,42.6l.163.145c.243.216.492.42.74.626a28.593,28.593,0,0,1-1.664-39.711Z" transform="translate(610.859 346.188)" fill="#2f2e41"/>
        <path id="Ellipse_190" data-name="Ellipse 190" d="M18.418,0A18.418,18.418,0,1,1,0,18.418,18.418,18.418,0,0,1,18.418,0Z" transform="translate(1005.928 713.051)" fill="#683824"/>
        <path id="Path_975" data-name="Path 975" d="M392.874,357.267V375.69h4.265l5.428-5.816-.726,5.816H420.7l-1.166-5.816,2.332,5.816h3.006V357.267Z" transform="translate(615.719 351.18)" fill="#2f2e41"/>
        <path id="Path_403" data-name="Path 403" d="M477.789,407.75H364.56a6.862,6.862,0,0,1,0-13.725H477.789a6.862,6.862,0,0,1,0,13.725Z" transform="translate(191.662 193.743)" fill="#dfe5ed"/>
        <path id="Path_404" data-name="Path 404" d="M464.232,407.75H363.785c-3.362,0-6.088-3.072-6.088-6.862s2.726-6.862,6.088-6.862H464.232c3.362,0,6.088,3.072,6.088,6.862S467.594,407.75,464.232,407.75Z" transform="translate(191.662 221.144)" fill="#dfe5ed"/>
        <path id="Path_405" data-name="Path 405" d="M705.445,578.449a6.862,6.862,0,1,0,0,13.725h0a6.862,6.862,0,1,0,0-13.725Z" transform="translate(-166.914 9.32)" fill="#dfe5ed"/>
        <path id="Path_406" data-name="Path 406" d="M705.445,578.449a6.862,6.862,0,1,0,0,13.725h0a6.862,6.862,0,1,0,0-13.725Z" transform="translate(-166.914 36.72)" fill="#dfe5ed"/>
        <path id="Path_441" data-name="Path 441" d="M705.445,578.449a6.862,6.862,0,1,0,0,13.725h0a6.862,6.862,0,1,0,0-13.725Z" transform="translate(53.821 -18.081)" fill="#dfe5ed"/>
        <path id="Path_442" data-name="Path 442" d="M417.937,373.75H363.722c-3.327,0-6.024-3.072-6.024-6.862s2.7-6.862,6.024-6.862h54.215c3.327,0,6.024,3.072,6.024,6.862S421.264,373.75,417.937,373.75Z" transform="translate(394.706 172.943)" fill="#dfe5ed"/>
        <path id="Path_445" data-name="Path 445" d="M467.447,407.75H363.969c-3.464,0-6.271-3.072-6.271-6.862s2.808-6.862,6.271-6.862H467.447c3.464,0,6.271,3.072,6.271,6.862S470.91,407.75,467.447,407.75Z" transform="translate(412.397 221.144)" fill="#dfe5ed"/>
        <path id="Path_446" data-name="Path 446" d="M705.445,578.449a6.862,6.862,0,1,0,0,13.725h0a6.862,6.862,0,1,0,0-13.725Z" transform="translate(53.821 9.319)" fill="#dfe5ed"/>
        <path id="Path_447" data-name="Path 447" d="M705.445,578.449a6.862,6.862,0,1,0,0,13.725h0a6.862,6.862,0,1,0,0-13.725Z" transform="translate(53.821 36.72)" fill="#dfe5ed"/>
        <path id="Path_448" data-name="Path 448" d="M417.937,373.75H363.722c-3.327,0-6.024-3.072-6.024-6.862s2.7-6.862,6.024-6.862h54.215c3.327,0,6.024,3.072,6.024,6.862S421.264,373.75,417.937,373.75Z" transform="translate(473.088 172.943)" fill="#dfe5ed"/>
        <path id="Path_449" data-name="Path 449" d="M305.934,435.935H207.022a10,10,0,0,1-9.894-8.676,9.053,9.053,0,0,1-.086-1.3v-109.1a9.991,9.991,0,0,1,9.98-9.98h98.912a9.991,9.991,0,0,1,9.98,9.98v109.1a9.991,9.991,0,0,1-9.98,9.98ZM207.022,312.319a4.542,4.542,0,0,0-4.536,4.536v109.1a3.865,3.865,0,0,0,.035.558,4.55,4.55,0,0,0,4.5,3.979h98.912a4.542,4.542,0,0,0,4.536-4.536v-109.1a4.542,4.542,0,0,0-4.536-4.536Z" transform="translate(555.362 83.357)" fill="#dfe5ed"/>
        <path id="Path_456" data-name="Path 456" d="M477.789,407.75H364.56a6.862,6.862,0,0,1,0-13.725H477.789a6.862,6.862,0,0,1,0,13.725Z" transform="translate(412.397 166.344)" fill="#dfe5ed"/>
        <path id="Path_457" data-name="Path 457" d="M435.146,373.75h-69.7c-4.277,0-7.745-3.072-7.745-6.862s3.467-6.862,7.745-6.862h69.7c4.277,0,7.745,3.072,7.745,6.862S439.423,373.75,435.146,373.75Z" transform="translate(412.397 227.744)" fill="#dfe5ed"/>
        <path id="Path_391-5" data-name="Path 391" d="M554.564,579.935H455.652a10,10,0,0,1-9.894-8.676,9.045,9.045,0,0,1-.086-1.3v-109.1a9.992,9.992,0,0,1,9.98-9.98h98.912a9.992,9.992,0,0,1,9.98,9.98v109.1A9.991,9.991,0,0,1,554.564,579.935ZM455.652,456.319a4.542,4.542,0,0,0-4.536,4.537v109.1a3.859,3.859,0,0,0,.035.558,4.55,4.55,0,0,0,4.5,3.979h98.912a4.542,4.542,0,0,0,4.536-4.536v-109.1a4.542,4.542,0,0,0-4.536-4.537Z" transform="translate(527.467 -60.644)" fill="#dfe5ed"/>
        <path id="Path_486" data-name="Path 486" d="M705.445,578.449a6.862,6.862,0,1,0,0,13.725h0a6.862,6.862,0,1,0,0-13.725Z" transform="translate(274.557 -18.082)" fill="#dfe5ed"/>
        <path id="Path_487" data-name="Path 487" d="M417.937,373.75H363.722c-3.327,0-6.024-3.072-6.024-6.862s2.7-6.862,6.024-6.862h54.215c3.327,0,6.024,3.072,6.024,6.862S421.264,373.75,417.937,373.75Z" transform="translate(615.442 172.942)" fill="#dfe5ed"/>
        <path id="Path_488" data-name="Path 488" d="M467.447,407.75H363.969c-3.464,0-6.271-3.072-6.271-6.862s2.808-6.862,6.271-6.862H467.447c3.464,0,6.271,3.072,6.271,6.862S470.91,407.75,467.447,407.75Z" transform="translate(633.133 193.743)" fill="#dfe5ed"/>
        <path id="Path_489" data-name="Path 489" d="M705.445,578.449a6.862,6.862,0,1,0,0,13.725h0a6.862,6.862,0,1,0,0-13.725Z" transform="translate(274.557 9.319)" fill="#dfe5ed"/>
        <path id="Path_490" data-name="Path 490" d="M705.445,578.449a6.862,6.862,0,1,0,0,13.725h0a6.862,6.862,0,1,0,0-13.725Z" transform="translate(274.557 36.719)" fill="#dfe5ed"/>
        <path id="Path_491" data-name="Path 491" d="M417.937,373.75H363.722c-3.327,0-6.024-3.072-6.024-6.862s2.7-6.862,6.024-6.862h54.215c3.327,0,6.024,3.072,6.024,6.862S421.264,373.75,417.937,373.75Z" transform="translate(693.823 172.942)" fill="#dfe5ed"/>
        <path id="Path_492" data-name="Path 492" d="M477.789,407.75H364.56a6.862,6.862,0,0,1,0-13.725H477.789a6.862,6.862,0,0,1,0,13.725Z" transform="translate(633.133 221.144)" fill="#dfe5ed"/>
        <path id="Path_493" data-name="Path 493" d="M435.146,373.75h-69.7c-4.277,0-7.745-3.072-7.745-6.862s3.467-6.862,7.745-6.862h69.7c4.277,0,7.745,3.072,7.745,6.862S439.423,373.75,435.146,373.75Z" transform="translate(633.133 200.343)" fill="#dfe5ed"/>
        <path id="Path_494" data-name="Path 494" d="M705.425,578.449a6.842,6.842,0,0,0,0,13.684h0a6.842,6.842,0,1,0,0-13.684Z" transform="translate(-171.274 260.648)" fill="#dfe5ed"/>
        <path id="Path_495" data-name="Path 495" d="M417.759,373.709H363.7c-3.317,0-6.006-3.063-6.006-6.842s2.689-6.842,6.006-6.842h54.055c3.317,0,6.006,3.063,6.006,6.842S421.076,373.709,417.759,373.709Z" transform="translate(169.611 451.753)" fill="#dfe5ed"/>
        <path id="Path_497" data-name="Path 497" d="M705.425,578.449a6.92,6.92,0,0,0-3.2.814c-.8.112,7.862.07,6.572.052A6.716,6.716,0,0,0,705.425,578.449Z" transform="translate(-171.274 287.968)" fill="#dfe5ed"/>
        <path id="Path_499" data-name="Path 499" d="M417.759,373.709H363.7c-3.317,0-6.006-3.063-6.006-6.842s2.689-6.842,6.006-6.842h54.055c3.317,0,6.006,3.063,6.006,6.842S421.076,373.709,417.759,373.709Z" transform="translate(247.761 451.753)" fill="#dfe5ed"/>
        <path id="Path_506" data-name="Path 506" d="M477.435,407.709H364.54a6.842,6.842,0,1,1,0-13.684H477.435a6.842,6.842,0,1,1,0,13.684Z" transform="translate(187.25 445.072)" fill="#dfe5ed"/>
        <path id="Path_507" data-name="Path 507" d="M361.534,360.953a8.138,8.138,0,0,1,3.885-.928h69.5a8.825,8.825,0,0,1,3.722.846C441.8,360.879,358.668,360.914,361.534,360.953Z" transform="translate(187.25 506.392)" fill="#dfe5ed"/>
        <path id="Path_545" data-name="Path 545" d="M705.445,578.449a6.862,6.862,0,1,0,0,13.725h0a6.862,6.862,0,1,0,0-13.725Z" transform="translate(48.17 260.489)" fill="#dfe5ed"/>
        <path id="Path_546" data-name="Path 546" d="M417.937,373.75H363.722c-3.327,0-6.024-3.072-6.024-6.862s2.7-6.862,6.024-6.862h54.215c3.327,0,6.024,3.072,6.024,6.862S421.264,373.75,417.937,373.75Z" transform="translate(389.055 451.513)" fill="#dfe5ed"/>
        <path id="Path_547" data-name="Path 547" d="M361.027,395a6.57,6.57,0,0,1,3.533-.978H477.789a7.109,7.109,0,0,1,3.514.967C483.352,394.968,358.292,394.979,361.027,395Z" transform="translate(406.746 472.314)" fill="#dfe5ed"/>
        <path id="Path_551" data-name="Path 551" d="M417.937,373.75H363.722c-3.327,0-6.024-3.072-6.024-6.862s2.7-6.862,6.024-6.862h54.215c3.327,0,6.024,3.072,6.024,6.862S421.264,373.75,417.937,373.75Z" transform="translate(467.436 451.513)" fill="#dfe5ed"/>
        <path id="Path_552" data-name="Path 552" d="M435.146,373.75h-69.7c-4.277,0-7.745-3.072-7.745-6.862s3.468-6.862,7.745-6.862h69.7c4.277,0,7.745,3.072,7.745,6.862S439.423,373.75,435.146,373.75Z" transform="translate(406.746 478.914)" fill="#dfe5ed"/>
        <path id="Path_554" data-name="Path 554" d="M705.445,578.449a6.862,6.862,0,1,0,0,13.725h0a6.862,6.862,0,1,0,0-13.725Z" transform="translate(495.292 -18.081)" fill="#dfe5ed"/>
        <path id="Path_556" data-name="Path 556" d="M467.447,407.75H363.969c-3.464,0-6.271-3.072-6.271-6.862s2.808-6.862,6.271-6.862H467.447c3.464,0,6.271,3.072,6.271,6.862S470.91,407.75,467.447,407.75Z" transform="translate(853.868 193.744)" fill="#dfe5ed"/>
        <path id="Path_557" data-name="Path 557" d="M705.445,578.449a6.862,6.862,0,1,0,0,13.725h0a6.862,6.862,0,1,0,0-13.725Z" transform="translate(495.292 9.319)" fill="#dfe5ed"/>
        <path id="Path_558" data-name="Path 558" d="M705.445,578.449a6.862,6.862,0,1,0,0,13.725h0a6.862,6.862,0,1,0,0-13.725Z" transform="translate(495.292 36.72)" fill="#dfe5ed"/>
        <path id="Path_560" data-name="Path 560" d="M477.789,407.75H364.56a6.862,6.862,0,0,1,0-13.725H477.789a6.862,6.862,0,0,1,0,13.725Z" transform="translate(853.868 221.144)" fill="#dfe5ed"/>
        <path id="Path_561" data-name="Path 561" d="M435.146,373.75h-69.7c-4.277,0-7.745-3.072-7.745-6.862s3.467-6.862,7.745-6.862h69.7c4.277,0,7.745,3.072,7.745,6.862S439.423,373.75,435.146,373.75Z" transform="translate(853.868 200.343)" fill="#dfe5ed"/>
        <path id="Path_391-6" data-name="Path 391" d="M553.971,579.232H455.6a9.942,9.942,0,0,1-9.84-8.629,9.006,9.006,0,0,1-.086-1.3V460.8a9.937,9.937,0,0,1,9.926-9.926h98.373A9.937,9.937,0,0,1,563.9,460.8V569.306A9.937,9.937,0,0,1,553.971,579.232ZM455.6,456.289a4.517,4.517,0,0,0-4.512,4.512V569.306a3.844,3.844,0,0,0,.034.555,4.525,4.525,0,0,0,4.477,3.957h98.373a4.517,4.517,0,0,0,4.512-4.512V460.8a4.517,4.517,0,0,0-4.512-4.512Z" transform="translate(748.203 -59.939)" fill="#dfe5ed"/>
        <path id="Path_391-7" data-name="Path 391" d="M554.243,579.555h-98.62a9.967,9.967,0,0,1-9.865-8.651,9.035,9.035,0,0,1-.086-1.3V460.826a9.962,9.962,0,0,1,9.951-9.951h98.62a9.962,9.962,0,0,1,9.951,9.951V569.6A9.962,9.962,0,0,1,554.243,579.555ZM455.623,456.3a4.528,4.528,0,0,0-4.523,4.523V569.6a3.841,3.841,0,0,0,.034.556,4.537,4.537,0,0,0,4.488,3.967h98.62a4.528,4.528,0,0,0,4.523-4.523V460.826a4.528,4.528,0,0,0-4.523-4.523Z" transform="translate(80.345 218.588)" fill="#dfe5ed"/>
        <path id="Path_391-8" data-name="Path 391" d="M554.564,579.935H455.652a10,10,0,0,1-9.894-8.676,9.051,9.051,0,0,1-.086-1.3v-109.1a9.992,9.992,0,0,1,9.98-9.98h98.912a9.992,9.992,0,0,1,9.98,9.98v109.1A9.992,9.992,0,0,1,554.564,579.935ZM455.652,456.319a4.542,4.542,0,0,0-4.536,4.537v109.1a3.823,3.823,0,0,0,.035.558,4.55,4.55,0,0,0,4.5,3.979h98.912a4.542,4.542,0,0,0,4.536-4.536v-109.1a4.542,4.542,0,0,0-4.536-4.537Z" transform="translate(301.08 217.928)" fill="#dfe5ed"/>
        <path id="Path_673" data-name="Path 673" d="M705.425,578.449a6.842,6.842,0,0,0,0,13.684h0a6.842,6.842,0,1,0,0-13.684Z" transform="translate(269.332 260.604)" fill="#dfe5ed"/>
        <path id="Path_674" data-name="Path 674" d="M417.759,373.709H363.7c-3.317,0-6.006-3.063-6.006-6.842s2.689-6.842,6.006-6.842h54.055c3.317,0,6.006,3.063,6.006,6.842S421.076,373.709,417.759,373.709Z" transform="translate(610.217 451.709)" fill="#dfe5ed"/>
        <path id="Path_678" data-name="Path 678" d="M417.759,373.709H363.7c-3.317,0-6.006-3.063-6.006-6.842s2.689-6.842,6.006-6.842h54.055c3.317,0,6.006,3.063,6.006,6.842S421.076,373.709,417.759,373.709Z" transform="translate(688.368 451.709)" fill="#dfe5ed"/>
        <path id="Path_679" data-name="Path 679" d="M477.435,407.709H364.54a6.842,6.842,0,1,1,0-13.684H477.435a6.842,6.842,0,1,1,0,13.684Z" transform="translate(627.856 445.028)" fill="#dfe5ed"/>
        <path id="Path_684" data-name="Path 684" d="M705.445,578.449a6.862,6.862,0,1,0,0,13.725h0a6.862,6.862,0,1,0,0-13.725Z" transform="translate(488.776 260.445)" fill="#dfe5ed"/>
        <path id="Path_685" data-name="Path 685" d="M417.937,373.75H363.722c-3.327,0-6.024-3.072-6.024-6.862s2.7-6.862,6.024-6.862h54.215c3.327,0,6.024,3.072,6.024,6.862S421.264,373.75,417.937,373.75Z" transform="translate(829.661 451.469)" fill="#dfe5ed"/>
        <path id="Path_690" data-name="Path 690" d="M417.937,373.75H363.722c-3.327,0-6.024-3.072-6.024-6.862s2.7-6.862,6.024-6.862h54.215c3.327,0,6.024,3.072,6.024,6.862S421.264,373.75,417.937,373.75Z" transform="translate(908.043 451.469)" fill="#dfe5ed"/>
        <path id="Path_691" data-name="Path 691" d="M435.146,373.75h-69.7c-4.277,0-7.745-3.072-7.745-6.862s3.468-6.862,7.745-6.862h69.7c4.277,0,7.745,3.072,7.745,6.862S439.423,373.75,435.146,373.75Z" transform="translate(847.352 478.87)" fill="#dfe5ed"/>
        <path id="Path_391-9" data-name="Path 391" d="M554.564,579.935H455.652a10,10,0,0,1-9.894-8.676,9.051,9.051,0,0,1-.086-1.3v-109.1a9.992,9.992,0,0,1,9.98-9.98h98.912a9.992,9.992,0,0,1,9.98,9.98v109.1A9.992,9.992,0,0,1,554.564,579.935ZM455.652,456.319a4.542,4.542,0,0,0-4.536,4.537v109.1a3.823,3.823,0,0,0,.035.558,4.55,4.55,0,0,0,4.5,3.979h98.912a4.542,4.542,0,0,0,4.536-4.536v-109.1a4.542,4.542,0,0,0-4.536-4.537Z" transform="translate(741.687 217.884)" fill="#dfe5ed"/>
        <path id="Path_713" data-name="Path 713" d="M705.425,578.449a6.628,6.628,0,0,0-3.2.859c-.8.118,7.862.074,6.572.055A6.442,6.442,0,0,0,705.425,578.449Z" transform="translate(48.063 287.89)" fill="#dfe5ed"/>
        <path id="Path_714" data-name="Path 714" d="M705.425,578.449a6.92,6.92,0,0,0-3.2.814c-.8.112,7.862.07,6.572.052A6.716,6.716,0,0,0,705.425,578.449Z" transform="translate(265.741 287.968)" fill="#dfe5ed"/>
        <path id="Path_715" data-name="Path 715" d="M361.534,360.953a8.138,8.138,0,0,1,3.885-.928h69.5a8.825,8.825,0,0,1,3.722.846C441.8,360.879,358.668,360.914,361.534,360.953Z" transform="translate(624.265 506.392)" fill="#dfe5ed"/>
        <path id="Path_716" data-name="Path 716" d="M361.027,395a6.57,6.57,0,0,1,3.533-.978H477.789a7.109,7.109,0,0,1,3.514.967C483.352,394.968,358.292,394.979,361.027,395Z" transform="translate(843.76 472.314)" fill="#dfe5ed"/>
        <path id="Path_717" data-name="Path 717" d="M705.425,578.449a6.628,6.628,0,0,0-3.2.859c-.8.118,7.862.074,6.572.055A6.442,6.442,0,0,0,705.425,578.449Z" transform="translate(485.078 287.89)" fill="#dfe5ed"/>
        <path id="Path_391-10" data-name="Path 391" d="M554.243,579.555h-98.62a9.967,9.967,0,0,1-9.865-8.651,9.035,9.035,0,0,1-.086-1.3V460.826a9.962,9.962,0,0,1,9.951-9.951h98.62a9.962,9.962,0,0,1,9.951,9.951V569.6A9.962,9.962,0,0,1,554.243,579.555ZM455.623,456.3a4.528,4.528,0,0,0-4.523,4.523V569.6a3.841,3.841,0,0,0,.034.556,4.537,4.537,0,0,0,4.488,3.967h98.62a4.528,4.528,0,0,0,4.523-4.523V460.826a4.528,4.528,0,0,0-4.523-4.523Z" transform="translate(520.951 218.544)" fill="#dfe5ed"/>
        <path id="Path_393-10" data-name="Path 393" d="M537.853,567.284a21.52,21.52,0,0,0-11.471-18.906c-.28-.154-.57-.289-.859-.425a21.362,21.362,0,0,0-7.97-2.026l-21.15-1.185a21.344,21.344,0,0,0-8.775,1.348,20.443,20.443,0,0,0-2,.868,21.3,21.3,0,0,0-5.536,3.935,21.536,21.536,0,0,0-6.387,16.229l.38,8.965,2.659,6.9H535.88a16.232,16.232,0,0,0,1.9-2.877A14.4,14.4,0,0,0,537.853,567.284Z" transform="translate(518.278 209.593)" fill="#a6b3c6"/>
        <path id="Path_394-10" data-name="Path 394" d="M540.428,555.737a12.8,12.8,0,0,0-4.378-5.193,13.073,13.073,0,0,0-4.532-1.972,13.24,13.24,0,0,0-1.972-.28,12.742,12.742,0,0,0-3.89.335,12.912,12.912,0,0,0-8.313,18.535l8.133,15.4.407.769h27.31Z" transform="translate(514.255 209.253)" fill="#a6b3c6"/>
        <path id="Path_395-10" data-name="Path 395" d="M491.082,547.506A12.963,12.963,0,0,0,487,546.221a12.562,12.562,0,0,0-3.193-.045,12.9,12.9,0,0,0-11.181,10.213l-5.509,26.731h21.547l4.026-1.646,5.011-19.232A12.953,12.953,0,0,0,491.082,547.506Z" transform="translate(518.905 209.46)" fill="#a6b3c6"/>
        <path id="Path_719" data-name="Path 719" d="M332.805,71.031h0S322.932,51.47,311.365,52.6A160.174,160.174,0,0,0,293.7,55.1s-3.434-15.235,12.733-21.1c0,0-20.555-20.262,3.917-30.2S348.52,6.542,348.52,6.542s18.115,18.084-4.7,31.6c0,0,16.941,22.788-3.57,41.57,0,0,4.588-15.2-.2-12.4a52.91,52.91,0,0,1-7.245,3.716h0Z" transform="translate(1154.411 378.063)" fill="#2f2e41"/>
        <path id="Path_733" data-name="Path 733" d="M635.742,212.13a134.514,134.514,0,1,1-7.626,198.656l-165,139.224a12.4,12.4,0,0,1-16.006-18.932l.018-.015L582.989,416.427l29.139-24.588A134.522,134.522,0,0,1,635.742,212.13Zm10.637,166.3A100.779,100.779,0,1,0,658.41,236.419h0A100.779,100.779,0,0,0,646.379,378.433Z" transform="translate(-79.142 63.859) rotate(9)" fill="#0d264b"/>
        <path id="Path_164" data-name="Path 164" d="M252.539,428.935l-21,13.628a5.113,5.113,0,0,1-7.064-1.5L206.8,413.831a14.071,14.071,0,0,1,21.754-17.609L253.37,421.04a5.107,5.107,0,0,1-.832,7.895Z" transform="matrix(0.966, 0.259, -0.259, 0.966, 228.58, 96.634)" fill="#133567"/>
        <path id="Path_163" data-name="Path 163" d="M302.327,398.031a11.953,11.953,0,0,0-.272,1.861L253.3,428.017l-11.85-6.822-12.633,16.538,25.35,18.068,55.618-43.878a11.911,11.911,0,1,0-7.463-13.892Z" transform="matrix(0.719, 0.695, -0.695, 0.719, 427.803, 126.643)" fill="#f5d6c8"/>
        <g id="Ellipse_108" data-name="Ellipse 108" transform="translate(1240.844 688.435)" fill="#2f2e41" stroke="#2f2e41" stroke-width="1">
          <circle cx="4.5" cy="4.5" r="4.5" stroke="none"/>
          <circle cx="4.5" cy="4.5" r="4" fill="none"/>
        </g>
        <g id="Ellipse_109" data-name="Ellipse 109" transform="translate(1222.007 696.834)" fill="#2f2e41" stroke="#2f2e41" stroke-width="1">
          <circle cx="4.5" cy="4.5" r="4.5" stroke="none"/>
          <circle cx="4.5" cy="4.5" r="4" fill="none"/>
        </g>
        <g id="Ellipse_110" data-name="Ellipse 110" transform="translate(1249.007 690.447)" fill="#2f2e41" stroke="#2f2e41" stroke-width="1">
          <circle cx="4.5" cy="4.5" r="4.5" stroke="none"/>
          <circle cx="4.5" cy="4.5" r="4" fill="none"/>
        </g>
        <g id="Ellipse_111" data-name="Ellipse 111" transform="translate(1225.393 692.334)" fill="#2f2e41" stroke="#2f2e41" stroke-width="1">
          <circle cx="4.5" cy="4.5" r="4.5" stroke="none"/>
          <circle cx="4.5" cy="4.5" r="4" fill="none"/>
        </g>
        <g id="Ellipse_112" data-name="Ellipse 112" transform="translate(1225.007 698.89)" fill="#2f2e41" stroke="#2f2e41" stroke-width="1">
          <circle cx="4.5" cy="4.5" r="4.5" stroke="none"/>
          <circle cx="4.5" cy="4.5" r="4" fill="none"/>
        </g>
        <g id="Ellipse_113" data-name="Ellipse 113" transform="translate(1255.507 692.334)" fill="#2f2e41" stroke="#2f2e41" stroke-width="1">
          <circle cx="4.5" cy="4.5" r="4.5" stroke="none"/>
          <circle cx="4.5" cy="4.5" r="4" fill="none"/>
        </g>
        <g id="Ellipse_114" data-name="Ellipse 114" transform="translate(1231.007 694.629)" fill="#2f2e41" stroke="#2f2e41" stroke-width="1">
          <circle cx="4.5" cy="4.5" r="4.5" stroke="none"/>
          <circle cx="4.5" cy="4.5" r="4" fill="none"/>
        </g>
        <g id="Ellipse_115" data-name="Ellipse 115" transform="translate(1220.49 708.658)" fill="#2f2e41" stroke="#2f2e41" stroke-width="1">
          <ellipse cx="4.058" cy="4.116" rx="4.058" ry="4.116" stroke="none"/>
          <ellipse cx="4.058" cy="4.116" rx="3.558" ry="3.616" fill="none"/>
        </g>
        <g id="Ellipse_116" data-name="Ellipse 116" transform="translate(1234.007 687.834)" fill="#2f2e41" stroke="#2f2e41" stroke-width="1">
          <circle cx="4.5" cy="4.5" r="4.5" stroke="none"/>
          <circle cx="4.5" cy="4.5" r="4" fill="none"/>
        </g>
        <g id="Ellipse_117" data-name="Ellipse 117" transform="translate(1247.507 687.834)" fill="#2f2e41" stroke="#2f2e41" stroke-width="1">
          <circle cx="4.5" cy="4.5" r="4.5" stroke="none"/>
          <circle cx="4.5" cy="4.5" r="4" fill="none"/>
        </g>
        <g id="Ellipse_118" data-name="Ellipse 118" transform="translate(1255.507 689.89)" fill="#2f2e41" stroke="#2f2e41" stroke-width="1">
          <circle cx="4.5" cy="4.5" r="4.5" stroke="none"/>
          <circle cx="4.5" cy="4.5" r="4" fill="none"/>
        </g>
        <g id="Ellipse_119" data-name="Ellipse 119" transform="translate(1261.24 692.83)" fill="#2f2e41" stroke="#2f2e41" stroke-width="1">
          <circle cx="4.5" cy="4.5" r="4.5" stroke="none"/>
          <circle cx="4.5" cy="4.5" r="4" fill="none"/>
        </g>
        <g id="Ellipse_120" data-name="Ellipse 120" transform="translate(1262.507 699.447)" fill="#2f2e41" stroke="#2f2e41" stroke-width="1">
          <circle cx="4.5" cy="4.5" r="4.5" stroke="none"/>
          <circle cx="4.5" cy="4.5" r="4" fill="none"/>
        </g>
        <g id="Ellipse_121" data-name="Ellipse 121" transform="translate(1234.007 692.334)" fill="#2f2e41" stroke="#2f2e41" stroke-width="1">
          <circle cx="4.5" cy="4.5" r="4.5" stroke="none"/>
          <circle cx="4.5" cy="4.5" r="4" fill="none"/>
        </g>
        <g id="Ellipse_122" data-name="Ellipse 122" transform="translate(1222.007 703.39)" fill="#2f2e41" stroke="#2f2e41" stroke-width="1">
          <circle cx="4.5" cy="4.5" r="4.5" stroke="none"/>
          <circle cx="4.5" cy="4.5" r="4" fill="none"/>
        </g>
        <path id="Path_819" data-name="Path 819" d="M335.75,44.964c-2.238-4.6-4.187-4.589-5.738-6.66-2.3-2.5-7.991-2.7-11.86-3.131-1.893-.213-4.916-.89-8.056,0-1.386.392-4.541,2.408-6.556,3.131-2.464.936-4.973,4.7-6.529,9.242a55.071,55.071,0,0,0-2.334,11.661,3.865,3.865,0,0,1-1.2-1.633c-.139-.3-.185-1.3-.459-1.962a11.968,11.968,0,0,1-.637-1.375,29.217,29.217,0,0,1-.841-3.337s-.238-19.552,13.469-24.52c0,0,10.643-4.117,20.365-2.176,6.946,1.386,13.322,8.464,14.395,10.968,1.479,3.451,4.021,9.927,2.127,15.728-.477,2.426-.892,6.012-3.4,8.306a50.179,50.179,0,0,0,0-7.074c-.142-1.775-1.866-5.361-2.746-7.169Z" transform="translate(930.156 670.944)" fill="#2f2e41"/>
        <g id="Path_820" data-name="Path 820" transform="translate(1218.448 712.774)" fill="#2f2e41">
          <path d="M 4.499995708465576 8.5 C 2.294385433197021 8.5 0.4999954700469971 6.705609798431396 0.4999954700469971 4.5 C 0.4999954700469971 2.294389963150024 2.294385433197021 0.5 4.499995708465576 0.5 C 5.882045269012451 0.5 6.30633544921875 0.8105499744415283 6.521555423736572 1.081110000610352 C 6.830095291137695 1.468950033187866 6.961735248565674 2.163539886474609 6.961735248565674 3.403630018234253 C 6.961735248565674 4.89326000213623 6.788815498352051 6.086480140686035 6.447795391082764 6.950160026550293 C 6.03600549697876 7.993040084838867 5.398875713348389 8.5 4.499995708465576 8.5 Z" stroke="none"/>
          <path d="M 4.499995231628418 1 C 2.570085525512695 1 0.9999957084655762 2.570089817047119 0.9999957084655762 4.5 C 0.9999957084655762 6.429909706115723 2.570085525512695 8 4.499995231628418 8 C 4.96357536315918 8 5.551045417785645 7.859799861907959 5.982735633850098 6.76653003692627 C 6.300575256347656 5.961569786071777 6.461735725402832 4.830130100250244 6.461735725402832 3.403629779815674 C 6.461735725402832 2.719099998474121 6.427375316619873 1.765860080718994 6.130275726318359 1.392380237579346 C 6.053065299987793 1.295330047607422 5.81812572479248 1 4.499995231628418 1 M 4.499995231628418 0 C 6.98528528213501 0 7.461735248565674 0.918339729309082 7.461735248565674 3.403629779815674 C 7.461735248565674 5.888910293579102 6.98528528213501 9 4.499995231628418 9 C 2.014715671539307 9 -4.291534423828125e-06 6.98528003692627 -4.291534423828125e-06 4.5 C -4.291534423828125e-06 2.01471996307373 2.014715671539307 0 4.499995231628418 0 Z" stroke="none" fill="#2f2e41"/>
        </g>
        <g id="Ellipse_124" data-name="Ellipse 124" transform="translate(1218.507 705.834)" fill="#2f2e41" stroke="#2f2e41" stroke-width="1">
          <circle cx="4.5" cy="4.5" r="4.5" stroke="none"/>
          <circle cx="4.5" cy="4.5" r="4" fill="none"/>
        </g>
        <g id="Ellipse_125" data-name="Ellipse 125" transform="translate(1219.605 701.334)" fill="#2f2e41" stroke="#2f2e41" stroke-width="1">
          <circle cx="4.5" cy="4.5" r="4.5" stroke="none"/>
          <circle cx="4.5" cy="4.5" r="4" fill="none"/>
        </g>
        <g id="Ellipse_126" data-name="Ellipse 126" transform="translate(1265.076 704.158)" fill="#2f2e41" stroke="#2f2e41" stroke-width="1">
          <circle cx="4.5" cy="4.5" r="4.5" stroke="none"/>
          <circle cx="4.5" cy="4.5" r="4" fill="none"/>
        </g>
        <g id="Ellipse_127" data-name="Ellipse 127" transform="translate(1264.507 697.33)" fill="#2f2e41" stroke="#2f2e41" stroke-width="1">
          <circle cx="4.5" cy="4.5" r="4.5" stroke="none"/>
          <circle cx="4.5" cy="4.5" r="4" fill="none"/>
        </g>
        <g id="Ellipse_128" data-name="Ellipse 128" transform="translate(1266.043 708.658)" fill="#2f2e41" stroke="#2f2e41" stroke-width="1">
          <circle cx="4.5" cy="4.5" r="4.5" stroke="none"/>
          <circle cx="4.5" cy="4.5" r="4" fill="none"/>
        </g>
        <g id="Ellipse_129" data-name="Ellipse 129" transform="translate(1255.507 695.158)" fill="#2f2e41" stroke="#2f2e41" stroke-width="1">
          <circle cx="4.5" cy="4.5" r="4.5" stroke="none"/>
          <circle cx="4.5" cy="4.5" r="4" fill="none"/>
        </g>
        <g id="Ellipse_130" data-name="Ellipse 130" transform="translate(1229.893 687.834)" fill="#2f2e41" stroke="#2f2e41" stroke-width="1">
          <circle cx="4.5" cy="4.5" r="4.5" stroke="none"/>
          <circle cx="4.5" cy="4.5" r="4" fill="none"/>
        </g>
        <g id="Ellipse_131" data-name="Ellipse 131" transform="translate(1235.507 685.947)" fill="#2f2e41" stroke="#2f2e41" stroke-width="1">
          <circle cx="4.5" cy="4.5" r="4.5" stroke="none"/>
          <circle cx="4.5" cy="4.5" r="4" fill="none"/>
        </g>
        <g id="Ellipse_132" data-name="Ellipse 132" transform="translate(1240.844 685.39)" fill="#2f2e41" stroke="#2f2e41" stroke-width="1">
          <circle cx="4.5" cy="4.5" r="4.5" stroke="none"/>
          <circle cx="4.5" cy="4.5" r="4" fill="none"/>
        </g>
        <g id="Ellipse_133" data-name="Ellipse 133" transform="translate(1252.007 685.947)" fill="#2f2e41" stroke="#2f2e41" stroke-width="1">
          <circle cx="4.5" cy="4.5" r="4.5" stroke="none"/>
          <circle cx="4.5" cy="4.5" r="4" fill="none"/>
        </g>
        <g id="Ellipse_134" data-name="Ellipse 134" transform="translate(1246.507 685.39)" fill="#2f2e41" stroke="#2f2e41" stroke-width="1">
          <circle cx="4.5" cy="4.5" r="4.5" stroke="none"/>
          <circle cx="4.5" cy="4.5" r="4" fill="none"/>
        </g>
        <g id="Ellipse_135" data-name="Ellipse 135" transform="translate(1258.007 688.435)" fill="#2f2e41" stroke="#2f2e41" stroke-width="1">
          <circle cx="4.5" cy="4.5" r="4.5" stroke="none"/>
          <circle cx="4.5" cy="4.5" r="4" fill="none"/>
        </g>
        <g id="Ellipse_136" data-name="Ellipse 136" transform="translate(1266.043 703.39)" fill="#2f2e41" stroke="#2f2e41" stroke-width="1">
          <circle cx="4.5" cy="4.5" r="4.5" stroke="none"/>
          <circle cx="4.5" cy="4.5" r="4" fill="none"/>
        </g>
        <g id="Group_96" data-name="Group 96" transform="translate(17.418 3.95)">
          <path id="Path_459" data-name="Path 459" d="M713.2,578.449a14.621,14.621,0,0,0,0,29.242h0a14.621,14.621,0,0,0,0-29.242Z" transform="translate(0.125 -261.275)" fill="#dfe5ed"/>
          <path id="Path_365" data-name="Path 365" d="M823.337,255.019a5.68,5.68,0,1,1-1.4-7.911A5.681,5.681,0,0,1,823.337,255.019Zm-8.143-5.7a4.26,4.26,0,1,0,5.933-1.046A4.26,4.26,0,0,0,815.194,249.317Z" transform="translate(-107.393 79.349)" fill="#fff"/>
          <path id="Path_364" data-name="Path 364" d="M850.941,277.828a.8.8,0,0,1-1.114.2l-4.366-3.038a.8.8,0,0,1,.918-1.311l4.366,3.038A.8.8,0,0,1,850.941,277.828Z" transform="translate(-130.04 59.992)" fill="#fff"/>
        </g>
        <path id="Path_821" data-name="Path 821" d="M14.621,0H122.628a14.621,14.621,0,0,1,0,29.242H14.621A14.621,14.621,0,0,1,14.621,0Z" transform="translate(763.312 321.124)" fill="#dfe5ed"/>
        <g id="Path_822" data-name="Path 822" transform="translate(1265.74 713.658)" fill="#2f2e41">
          <path d="M 4.499999523162842 8.5 C 4.072525501251221 8.5 3.929441452026367 8.432072639465332 3.895763158798218 8.411345481872559 C 3.863785028457642 8.244056701660156 4.098621845245361 7.694435119628906 4.255339622497559 7.327620029449463 C 4.587099552154541 6.551109790802002 4.999999523162842 5.584710121154785 4.999999523162842 4.5 C 4.999999523162842 3.415290117263794 4.587099552154541 2.448889970779419 4.255339622497559 1.672379970550537 C 4.098621845245361 1.305564880371094 3.863785028457642 0.7559433579444885 3.895763158798218 0.5886545777320862 C 3.929441452026367 0.5679269433021545 4.072525501251221 0.5 4.499999523162842 0.5 C 6.705609321594238 0.5 8.499999046325684 2.294389963150024 8.499999046325684 4.5 C 8.499999046325684 6.705609798431396 6.705609321594238 8.5 4.499999523162842 8.5 Z" stroke="none"/>
          <path d="M 4.517421722412109 1.000042915344238 C 4.578414440155029 1.155940055847168 4.65233850479126 1.328961849212646 4.715129375457764 1.475930213928223 C 5.046359539031982 2.251190185546875 5.499999523162842 3.312950134277344 5.499999523162842 4.5 C 5.499999523162842 5.687049865722656 5.046359539031982 6.748809814453125 4.715129375457764 7.524069786071777 C 4.65233850479126 7.671038150787354 4.578414440155029 7.844059944152832 4.517421722412109 7.999957084655762 C 6.439403533935547 7.990604400634766 7.999999523162842 6.424138069152832 7.999999523162842 4.5 C 7.999999523162842 2.575861930847168 6.439403533935547 1.009395599365234 4.517421722412109 1.000042915344238 M 4.499999523162842 0 C 6.985279560089111 0 9 2.01471996307373 9 4.5 C 9 6.98528003692627 6.985279560089111 9 4.499999523162842 9 C 2.01471996307373 9 4.499999523162842 6.98528003692627 4.499999523162842 4.5 C 4.499999523162842 2.01471996307373 2.01471996307373 0 4.499999523162842 0 Z" stroke="none" fill="#2f2e41"/>
        </g>
        <rect id="Rectangle_99" data-name="Rectangle 99" width="214.051" height="29.242" rx="14.621" transform="translate(484.13 321.124)" fill="#dfe5ed"/>
        <g id="Group_97" data-name="Group 97" transform="translate(21.048 3.95)">
          <rect id="Rectangle_98" data-name="Rectangle 98" width="137.25" height="29.243" rx="14.621" transform="translate(897.458 317.174)" fill="#dfe5ed"/>
          <g id="Group_60" data-name="Group 60" transform="translate(904.546 327.298)">
            <g id="Group_57" data-name="Group 57" transform="translate(0 0)">
              <g id="Group_56" data-name="Group 56" transform="translate(0 0)">
                <g id="Rectangle_101" data-name="Rectangle 101" transform="translate(6.778 8.407) rotate(-45)" fill="#fff" stroke="#fff" stroke-width="1">
                  <rect width="11.733" height="3.123" rx="1" stroke="none"/>
                  <rect x="0.5" y="0.5" width="10.733" height="2.123" rx="0.5" fill="none"/>
                </g>
                <g id="Path_462" data-name="Path 462" transform="translate(8.675 10.904) rotate(-135)" fill="#fff">
                  <path d="M 9.740521430969238 2.623162269592285 L 0.5000011920928955 2.623162269592285 L 0.5000011920928955 0.5000022053718567 L 9.740521430969238 0.5000022053718567 L 9.740521430969238 2.623162269592285 Z" stroke="none"/>
                  <path d="M 1.000000953674316 1.000002145767212 L 1.000000953674316 2.123162269592285 L 9.240521430969238 2.123162269592285 L 9.240521430969238 1.000002145767212 L 1.000000953674316 1.000002145767212 M 9.5367431640625e-07 2.145767211914062e-06 L 10.24052143096924 2.145767211914062e-06 L 10.24052143096924 3.123162269592285 L 9.5367431640625e-07 3.123162269592285 L 9.5367431640625e-07 2.145767211914062e-06 Z" stroke="none" fill="#fff"/>
                </g>
                <g id="Rectangle_102" data-name="Rectangle 102" transform="translate(2.247 0) rotate(46)" fill="#fff" stroke="#fff" stroke-width="1">
                  <rect width="2.776" height="3.123" rx="1" stroke="none"/>
                  <rect x="0.5" y="0.5" width="1.776" height="2.123" rx="0.5" fill="none"/>
                </g>
              </g>
            </g>
          </g>
        </g>
        <g id="Group_98" data-name="Group 98" transform="translate(26.858 2.963)">
          <rect id="Rectangle_100" data-name="Rectangle 100" width="137.25" height="29.242" rx="14.621" transform="translate(1046.842 318.161)" fill="#dfe5ed"/>
          <g id="Group_58" data-name="Group 58" transform="translate(1056.539 326.375)">
            <g id="Group_56-2" data-name="Group 56" transform="translate(0 0)">
              <g id="Rectangle_101-2" data-name="Rectangle 101" transform="translate(6.778 8.407) rotate(-45)" fill="#fff" stroke="#fff" stroke-width="1">
                <rect width="11.733" height="3.123" rx="1" stroke="none"/>
                <rect x="0.5" y="0.5" width="10.733" height="2.123" rx="0.5" fill="none"/>
              </g>
              <g id="Path_462-2" data-name="Path 462" transform="translate(8.675 10.904) rotate(-135)" fill="#fff">
                <path d="M 9.740517616271973 2.623160839080811 L 0.4999978542327881 2.623151779174805 L 0.4999978542327881 0.5000017285346985 L 9.740517616271973 0.5000107884407043 L 9.740517616271973 2.623160839080811 Z" stroke="none"/>
                <path d="M 0.9999980926513672 1.000002145767212 L 0.9999980926513672 2.123152256011963 L 9.240517616271973 2.123160362243652 L 9.240517616271973 1.000010251998901 L 0.9999980926513672 1.000002145767212 M -1.9073486328125e-06 1.192092895507812e-06 L 10.24051761627197 1.120567321777344e-05 L 10.24051761627197 3.123161315917969 L -1.9073486328125e-06 3.123151302337646 L -1.9073486328125e-06 1.192092895507812e-06 Z" stroke="none" fill="#fff"/>
              </g>
              <g id="Rectangle_102-2" data-name="Rectangle 102" transform="translate(2.247 0) rotate(46)" fill="#fff" stroke="#fff" stroke-width="1">
                <rect width="2.776" height="3.123" rx="1" stroke="none"/>
                <rect x="0.5" y="0.5" width="1.776" height="2.123" rx="0.5" fill="none"/>
              </g>
            </g>
          </g>
        </g>
        <g id="Group_99" data-name="Group 99" transform="translate(35.019 3.95)">
          <rect id="Rectangle_103" data-name="Rectangle 103" width="137.25" height="29.243" rx="14.621" transform="translate(1193.875 317.174)" fill="#dfe5ed"/>
          <g id="Group_56-3" data-name="Group 56" transform="translate(1207.947 326.343)">
            <g id="Rectangle_101-3" data-name="Rectangle 101" transform="translate(6.778 8.407) rotate(-45)" fill="#fff" stroke="#fff" stroke-width="1">
              <rect width="11.733" height="3.123" rx="1" stroke="none"/>
              <rect x="0.5" y="0.5" width="10.733" height="2.123" rx="0.5" fill="none"/>
            </g>
            <g id="Path_462-3" data-name="Path 462" transform="translate(8.675 10.904) rotate(-135)" fill="#fff">
              <path d="M 9.740524291992188 2.623163223266602 L 0.5000040531158447 2.623163223266602 L 0.5000040531158447 0.5000031590461731 L 9.740524291992188 0.5000031590461731 L 9.740524291992188 2.623163223266602 Z" stroke="none"/>
              <path d="M 1.000003814697266 1.000003099441528 L 1.000003814697266 2.123163223266602 L 9.240524291992188 2.123163223266602 L 9.240524291992188 1.000003099441528 L 1.000003814697266 1.000003099441528 M 3.814697265625e-06 3.099441528320312e-06 L 10.24052429199219 3.099441528320312e-06 L 10.24052429199219 3.123163223266602 L 3.814697265625e-06 3.123163223266602 L 3.814697265625e-06 3.099441528320312e-06 Z" stroke="none" fill="#fff"/>
            </g>
            <g id="Rectangle_102-3" data-name="Rectangle 102" transform="translate(2.247 0) rotate(46)" fill="#fff" stroke="#fff" stroke-width="1">
              <rect width="2.776" height="3.123" rx="1" stroke="none"/>
              <rect x="0.5" y="0.5" width="1.776" height="2.123" rx="0.5" fill="none"/>
            </g>
          </g>
        </g>
        <g id="Path_823" data-name="Path 823" transform="translate(1264.507 718.158)" fill="#2f2e41">
          <path d="M 5.134765625 8.625271797180176 C 5.165926933288574 8.580916404724121 5.196207523345947 8.538212776184082 5.223799705505371 8.499300003051758 C 5.6242995262146 7.934499740600586 6.002589702606201 7.401020050048828 5.926719665527344 6.923810005187988 L 5.915159702301025 6.851109981536865 L 5.883139610290527 6.784830093383789 C 5.808079719543457 6.629449844360352 5.700969696044922 6.503570079803467 5.597389698028564 6.381839752197266 C 5.331239700317383 6.069039821624756 4.999999523162842 5.679759979248047 4.999999523162842 4.5 C 4.999999523162842 3.415289878845215 4.587099552154541 2.448889970779419 4.255339622497559 1.672379970550537 C 4.098621845245361 1.305564880371094 3.863785028457642 0.7559432983398438 3.895763158798218 0.5886545181274414 C 3.929441452026367 0.5679269433021545 4.072525501251221 0.4999999701976776 4.499999523162842 0.4999999701976776 C 6.705609321594238 0.4999999701976776 8.499999046325684 2.294389963150024 8.499999046325684 4.5 C 8.499999046325684 6.54085636138916 7.014025688171387 8.29652214050293 5.134765625 8.625271797180176 Z" stroke="none"/>
          <path d="M 4.517421722412109 1.000042915344238 C 4.578414440155029 1.155940055847168 4.65233850479126 1.328961849212646 4.715129375457764 1.475929737091064 C 5.046359539031982 2.251190185546875 5.499999523162842 3.312950134277344 5.499999523162842 4.5 C 5.499999523162842 5.495820045471191 5.743099689483643 5.781519889831543 5.978189468383789 6.057819843292236 C 6.096419334411621 6.196760177612305 6.230419635772705 6.354249954223633 6.333359718322754 6.567339897155762 L 6.397399425506592 6.699910163879395 L 6.420519351959229 6.84529972076416 C 6.462552070617676 7.109673976898193 6.422092914581299 7.364293098449707 6.329773426055908 7.615076541900635 C 6.552852153778076 7.46574592590332 6.76286506652832 7.288305282592773 6.956079483032227 7.084389686584473 C 7.619509696960449 6.384220123291016 7.999999523162842 5.442239761352539 7.999999523162842 4.5 C 7.999999523162842 2.575861930847168 6.439403533935547 1.009395599365234 4.517421722412109 1.000042915344238 M 4.499999523162842 0 C 6.985279560089111 0 9 2.01471996307373 9 4.5 C 9 6.98528003692627 6.985279560089111 9.180419921875 4.499999523162842 9.180419921875 C 3.806609630584717 9.180419921875 5.52756929397583 7.597640037536621 5.432919502258301 7.002320289611816 C 5.235489368438721 6.593620300292969 4.499999523162842 6.291890144348145 4.499999523162842 4.5 C 4.499999523162842 2.01471996307373 2.01471996307373 0 4.499999523162842 0 Z" stroke="none" fill="#2f2e41"/>
        </g>
        <g id="Path_824" data-name="Path 824" transform="translate(1229.428 728.088) rotate(-175)" fill="#2f2e41">
          <path d="M 5.134761810302734 8.625272750854492 C 5.165923595428467 8.580917358398438 5.196211338043213 8.538202285766602 5.223803043365479 8.499290466308594 C 5.624303340911865 7.934490203857422 6.002583026885986 7.401020050048828 5.926723003387451 6.923820018768311 L 5.915163040161133 6.851109981536865 L 5.883142948150635 6.784820079803467 C 5.808083057403564 6.62945032119751 5.700973033905029 6.503570079803467 5.597393035888672 6.381840229034424 C 5.33124303817749 6.069050312042236 5.000003337860107 5.679769992828369 5.000003337860107 4.5 C 5.000003337860107 4.028460025787354 5.133103370666504 3.657790184020996 5.274013042449951 3.265360116958618 C 5.422100067138672 2.852946519851685 5.584891319274902 2.399587392807007 5.543252944946289 1.863688230514526 C 5.625346183776855 1.867609620094299 5.710964679718018 1.869570136070251 5.800143241882324 1.869570136070251 C 5.991593360900879 1.869570136070251 6.166573047637939 1.776010155677795 6.268203258514404 1.619300127029419 C 6.420211791992188 1.384899497032166 6.362332820892334 1.137530207633972 6.250238418579102 0.8624709844589233 C 6.758470058441162 1.09402871131897 7.234734535217285 1.470980167388916 7.613083362579346 1.950800180435181 C 8.185023307800293 2.676140069961548 8.500002861022949 3.581460237503052 8.500002861022949 4.5 C 8.500002861022949 6.54085636138916 7.014021873474121 8.296524047851562 5.134761810302734 8.625272750854492 Z" stroke="none"/>
          <path d="M 6.754321575164795 1.774559497833252 C 6.735111236572266 1.81342601776123 6.712999820709229 1.852356910705566 6.687713146209717 1.891350269317627 C 6.536369800567627 2.124728679656982 6.301456451416016 2.28480339050293 6.033988952636719 2.344081878662109 C 5.988090038299561 2.756213665008545 5.858933925628662 3.115903377532959 5.744593143463135 3.434329986572266 C 5.613353252410889 3.799839973449707 5.500003337860107 4.115509986877441 5.500003337860107 4.5 C 5.500003337860107 5.495830059051514 5.74310302734375 5.781530380249023 5.978193283081055 6.057820320129395 C 6.096423149108887 6.196760177612305 6.23041296005249 6.354240417480469 6.333353042602539 6.567330360412598 L 6.397403240203857 6.699910163879395 L 6.420523166656494 6.845320224761963 C 6.462552070617676 7.109686374664307 6.422091960906982 7.364299774169922 6.32977294921875 7.615079402923584 C 6.552852153778076 7.46574878692627 6.762868881225586 7.288305282592773 6.956083297729492 7.084390163421631 C 7.619513034820557 6.384220123291016 8.000003814697266 5.442240238189697 8.000003814697266 4.5 C 8.000003814697266 3.693290233612061 7.723153114318848 2.89792013168335 7.220453262329102 2.260390281677246 C 7.078657150268555 2.080563545227051 6.921775341033936 1.91764497756958 6.754321575164795 1.774559497833252 M 5.622461795806885 0.1513576507568359 C 5.643216133117676 0.1513576507568359 5.667079448699951 0.1542158126831055 5.694343090057373 0.1602106094360352 C 7.450423240661621 0.5027399063110352 9.000002861022949 2.320410251617432 9.000002861022949 4.5 C 9.000002861022949 6.98528003692627 6.985283374786377 9.180419921875 4.500002861022949 9.180419921875 C 3.80660343170166 9.180419921875 5.527563095092773 7.597640037536621 5.432923316955566 7.002320289611816 C 5.235483169555664 6.593620300292969 4.500002861022949 6.291890144348145 4.500002861022949 4.5 C 4.500002861022949 3.210140228271484 5.337532997131348 2.566280364990234 4.946653366088867 1.444240093231201 C 4.766117095947266 0.9853658676147461 4.604743957519531 1.369569778442383 5.800143241882324 1.369570255279541 C 6.091709136962891 1.369570255279541 5.194027423858643 0.1513633728027344 5.622461795806885 0.1513576507568359 Z" stroke="none" fill="#2f2e41"/>
        </g>
        <path id="Path_825" data-name="Path 825" d="M612.4,670.273a15.613,15.613,0,0,0-5.994-11.472c-1.3-1.008-2.806-1.859-3.668-3.247a21.928,21.928,0,0,1-1.246-3.043c-1.714-3.995-6.6-6.118-10.981-5.513s-8.174,3.491-10.729,7.029a7.428,7.428,0,0,0-7.815.943,7.063,7.063,0,0,0-2.4,7.344c-2.269-1.79-5.94-.358-7.356,2.135s-1.192,5.544-.771,8.368a77.723,77.723,0,0,0,3.795,14.98c2.21-1.905,2.074-5.375,1.8-8.307-.281-3.047-.112-6.767,2.608-8.27,2.629-1.453,5.82.142,8.719.967a16.772,16.772,0,0,0,13.63-2.1,43.034,43.034,0,0,1,4.482-3.057,5.388,5.388,0,0,1,5.215-.091c1.384.906,1.947,2.6,2.418,4.16l3.348,11.118a15.55,15.55,0,0,0,4.938-11.945Z" transform="translate(0.976 -231.92)" fill="#2f2e41"/>
        <ellipse id="Ellipse_138" data-name="Ellipse 138" cx="22.284" cy="22.284" rx="22.284" ry="22.284" transform="translate(564.075 424.628)" fill="#f0cba7"/>
        <path id="Path_826" data-name="Path 826" d="M612.4,670.273a15.613,15.613,0,0,0-5.994-11.472c-1.3-1.008-2.806-1.859-3.668-3.247a21.928,21.928,0,0,1-1.246-3.043c-1.714-3.995-6.6-6.118-10.981-5.513s-8.174,3.491-10.729,7.029a7.428,7.428,0,0,0-7.815.943,7.063,7.063,0,0,0-2.4,7.344c-2.269-1.79-5.94-.358-7.356,2.135s-1.192,5.544-.771,8.368a77.723,77.723,0,0,0,3.795,14.98c2.21-1.905,2.074-5.375,1.8-8.307-.281-3.047-.112-6.767,2.608-8.27,2.629-1.453,5.82.142,8.719.967a16.772,16.772,0,0,0,13.63-2.1,43.034,43.034,0,0,1,4.482-3.057,5.388,5.388,0,0,1,5.215-.091c1.384.906,1.947,2.6,2.418,4.16l3.348,11.118a15.55,15.55,0,0,0,4.938-11.945Z" transform="translate(0.976 -231.92)" fill="#2f2e41"/>
        <path id="Path_828" data-name="Path 828" d="M504.962,472.5c-6.4-2.979-14.266-3.956-20.782-1.187s-10.958,9.864-8.852,16.143c.955,2.847,3.131,5.647,2.283,8.523-.653,2.213-2.928,3.674-5.164,4.714s-4.68,1.913-6.3,3.665-1.954,4.769.066,6.128c.665.448,1.5.66,2.142,1.132a3.4,3.4,0,0,1,1.051,3.81,8.026,8.026,0,0,1-2.572,3.384c-2.292,1.977-5.322,4.24-4.61,7.046a4.944,4.944,0,0,0,3.336,3.12,16.575,16.575,0,0,0,4.9.646l67.645,2.131a25.656,25.656,0,0,0,6.679-.373,7.907,7.907,0,0,0,5.245-3.524c1.3-2.4.445-5.351-1.155-7.59s-3.864-4.005-5.734-6.061-3.4-4.622-3.072-7.279c.264-2.127,1.667-3.966,2.674-5.9s1.592-4.348.288-6.126c-1.838-2.505-6.25-2.279-8.34-4.613-1.577-1.762-1.273-4.3-1.429-6.57a15.939,15.939,0,0,0-9.547-13.023,18.8,18.8,0,0,0-17.1,1.165Z" transform="translate(298.976 218.305)" fill="#2f2e41"/>
        <ellipse id="Ellipse_139" data-name="Ellipse 139" cx="22.162" cy="22.162" rx="22.162" ry="22.162" transform="translate(784.279 705.209)" fill="#daab87"/>
        <path id="Path_832" data-name="Path 832" d="M486.648,506.887c7-.562,12.81-7.554,12.082-14.537A11.738,11.738,0,0,0,508.783,504.3c3.21.354,6.73-.618,9.524,1,3.095,1.794,4.085,6.15,7.31,7.7,3.115,1.5,7.072-.545,8.611-3.639s1.161-6.813.141-10.115a28.754,28.754,0,0,0-10.046-14.34,28.224,28.224,0,0,0-10.414-4.963,28.561,28.561,0,0,0-27.084,7.6c-2.943,2.96-5.28,6.733-5.659,10.89s1.549,8.667,5.282,10.535Z" transform="translate(297.12 217.334)" fill="#2f2e41"/>
      </g>
    </g>
  </g>
</svg>
